<?xml version="1.0" encoding="UTF-8"?>
<svg version="1.1" xmlns="http://www.w3.org/2000/svg" width="1024" height="1536">
<path d="M0 0 C337.92 0 675.84 0 1024 0 C1024 506.88 1024 1013.76 1024 1536 C686.08 1536 348.16 1536 0 1536 C0 1029.12 0 522.24 0 0 Z " fill="#FEFEFE" transform="translate(0,0)"/>
<path d="M0 0 C1.80200195 1.55102539 1.80200195 1.55102539 3.42578125 3.53515625 C4.02213379 4.25977051 4.61848633 4.98438477 5.23291016 5.73095703 C7.9684815 9.24358484 10.61123298 12.80653587 13.1875 16.4375 C13.74356934 17.21464355 14.29963867 17.99178711 14.87255859 18.79248047 C16.58659445 21.19154848 18.29402091 23.59519803 20 26 C20.52319824 26.73524902 21.04639648 27.47049805 21.58544922 28.22802734 C39.17283147 52.9510216 56.35590934 77.9941164 72 104 C72.55896973 104.9271582 73.11793945 105.85431641 73.69384766 106.80957031 C95.03891245 142.37464867 112.99068729 179.94352868 127 219 C127.3211377 219.88252441 127.64227539 220.76504883 127.97314453 221.67431641 C137.78695042 248.85533688 144.93963955 277.74223956 145.2734375 306.74609375 C145.29222961 308.24751419 145.29222961 308.24751419 145.31140137 309.77926636 C145.52605262 331.02583419 145.592834 351.34810766 140 372 C139.66307129 373.3305542 139.66307129 373.3305542 139.31933594 374.68798828 C127.23788872 422.02017922 96.63399604 465.33519802 54.625 490.6875 C52.10083821 492.15722703 49.55248341 493.58020859 47 495 C46.31309082 495.39251953 45.62618164 495.78503906 44.91845703 496.18945312 C27.81936656 505.92509588 9.53253176 512.37944732 -8.99267578 518.85205078 C-38.35598814 528.46554244 -38.35598814 528.46554244 -59 550 C-62.58468182 558.79876447 -61.50375876 567.65963717 -58.65625 576.4921875 C-57.96150543 579.14710425 -57.74755273 581.26897956 -58 584 C-60.14876679 586.56465714 -61.86584887 587.76004397 -65.16015625 588.45703125 C-69.4834324 588.76738329 -71.39439662 588.49794056 -74.8125 585.6875 C-78.27769878 580.56605366 -79.88140225 574.54247714 -81.72558594 568.70214844 C-92.72312681 533.93268935 -109.69450936 512.99538019 -140.109375 492.94921875 C-185.29090349 462.48221508 -218.28450524 417.68008387 -228.8359375 363.70458984 C-229.24355529 361.4725994 -229.62642076 359.23791269 -230 357 C-230.22429687 355.72511719 -230.44859375 354.45023438 -230.6796875 353.13671875 C-238.00114368 303.2404934 -224.47949854 252.27321475 -196 211 C-195.61376465 210.43120117 -195.2275293 209.86240234 -194.82958984 209.27636719 C-183.48456491 192.60479964 -169.76805322 175.7575781 -154.21875 162.84375 C-152.37415704 161.31091923 -150.57452714 159.74798911 -148.78125 158.15625 C-141.45494388 151.67627214 -133.9467954 145.55891961 -126.13598633 139.67211914 C-120.90790875 135.72516901 -115.87882029 131.61158453 -110.875 127.3828125 C-107.88894831 124.90795988 -104.83650373 122.5343872 -101.75 120.1875 C-96.0763261 115.87204587 -90.53733884 111.40679692 -85.02148438 106.8918457 C-81.22062981 103.78608017 -77.38823284 100.73212798 -73.50415039 97.73120117 C-67.36619963 92.98571523 -61.56888584 88.0157256 -55.9140625 82.703125 C-53.69698779 80.64653559 -51.4582213 78.65259402 -49.171875 76.67578125 C-32.80021006 62.40136103 -13.78255732 44.79685514 -11 22 C-10.69580239 16.8820903 -10.69580239 16.8820903 -10.51660156 11.7590332 C-10.34255928 7.15425853 -9.42206249 3.92171789 -7 0 C-4.25063573 -1.37468213 -2.90747089 -0.87978068 0 0 Z " fill="#135435" transform="translate(556,291)"/>
<path d="M0 0 C0.73976074 0.19754883 1.47952148 0.39509766 2.24169922 0.59863281 C18.6335475 5.15170557 33.24790928 13.16210028 47 23 C47.79792969 23.55042969 48.59585937 24.10085938 49.41796875 24.66796875 C49.94003906 25.10753906 50.46210937 25.54710937 51 26 C51 26.66 51 27.32 51 28 C49.9378125 28.17015625 48.875625 28.3403125 47.78125 28.515625 C34.5647589 30.41687878 34.5647589 30.41687878 24 38 C23.21643098 40.26393971 23.21643098 40.26393971 22.8125 42.6875 C22.65394531 43.49574219 22.49539063 44.30398438 22.33203125 45.13671875 C22.22246094 45.75160156 22.11289062 46.36648438 22 47 C19.4804938 46.462714 18.17431982 46.15027571 16.1875 44.4375 C14.42908177 40.82811522 14.83437369 37.71758925 16 34 C17.47894724 31.4251771 19.11633531 29.31835654 21 27 C12.97421742 21.48227448 3.47313492 20.97795644 -6 22 C-10.20443477 23.70055302 -13.22131793 25.83776008 -16.5 28.9375 C-21.2546004 33.34578656 -26.1356848 37.56934399 -31.08984375 41.74975586 C-37.97259852 46.91692708 -37.97259852 46.91692708 -41.4375 54.1875 C-41.26298437 57.13036002 -41.26298437 57.13036002 -39 59 C-36.17326263 59.38883196 -36.17326263 59.38883196 -33 59.5 C-27.22222222 59.77777778 -27.22222222 59.77777778 -25 62 C-24.63239269 64.32817964 -24.29758419 66.6618385 -24 69 C-22.87465895 70.35618499 -22.87465895 70.35618499 -19.9375 70.0625 C-18.968125 70.041875 -17.99875 70.02125 -17 70 C-15.74338844 67.48677688 -15.78432284 65.49082323 -15.625 62.6875 C-14.96553532 55.23942833 -12.32035398 52.01185088 -6.81640625 47.234375 C-4.87340589 45.91397045 -3.2951941 45.42372814 -1 45 C-2.15173355 47.46800047 -3.04783565 49.04783565 -5 51 C-5.16687448 53.58354218 -5.16687448 53.58354218 -5 56 C-2.69 56.99 -0.38 57.98 2 59 C-0.56855642 66.27757651 -4.73585728 71.5863152 -11 76 C-15.75471805 78.2256127 -19.84269555 78.57303383 -25 78 C-28 75.5 -28 75.5 -30 73 C-33.59459922 74.19819974 -33.86607696 75.02822456 -35.75 78.1875 C-40.58699423 85.65638816 -45.43438698 89.25877913 -53.9609375 91.84765625 C-56.25697228 92.84653431 -56.25697228 92.84653431 -56.84765625 95.49609375 C-57.02408118 98.39579588 -56.33833438 99.48078234 -55 102 C-54.66365179 104.7580553 -54.51529415 106.29263776 -56.10546875 108.61328125 C-58.86824844 110.63552206 -61.24124146 110.48244698 -64.625 110.625 C-68.63075761 110.45053019 -68.63075761 110.45053019 -72 112 C-73.13780284 117.81543675 -73.81978828 124.11509128 -73 130 C-68.49732821 133.00178119 -64.27396888 132.43143892 -59 132 C-52.12172695 130.43127106 -49.08740258 125.87713325 -44.55859375 120.6796875 C-41.23792801 117.20186048 -37.67357394 114.35264849 -33 113 C-28.91451729 113.29318597 -26.83617568 114.62284848 -23.875 117.375 C-23.21242188 117.98085938 -22.54984375 118.58671875 -21.8671875 119.2109375 C-20.70776224 120.32185124 -19.56375497 121.44939814 -18.4453125 122.6015625 C-16.84702674 124.23193038 -16.84702674 124.23193038 -14 126 C-15.36983503 129.16115776 -15.9890638 129.9927092 -19 132 C-19.72382467 134.05925139 -19.72382467 134.05925139 -20 136 C-14.5120636 133.60517966 -14.5120636 133.60517966 -11 129 C-10.33323122 125.54250051 -10.33323122 125.54250051 -11 122 C-13.18731921 119.22930256 -13.18731921 119.22930256 -16 117 C-18.3125 114.875 -18.3125 114.875 -20 113 C-20 112.01 -20 111.02 -20 110 C-10.35902523 113.40269698 -6.67898033 118.82679661 -2.1875 127.5 C-1.795625 128.325 -1.40375 129.15 -1 130 C0.32 130 1.64 130 3 130 C4.50400397 128.24896043 4.50400397 128.24896043 5.625 126 C6.8515625 123.75 6.8515625 123.75 8 122 C8.66 122 9.32 122 10 122 C11.11328125 123.609375 11.11328125 123.609375 12.3125 125.75 C14.46573887 129.30095533 16.34201175 131.85873859 20 134 C23.21501868 134.33489778 25.48449343 134.1634533 28.5625 133.1875 C31 133 31 133 33.875 135.125 C36 138 36 138 36.125 140.5625 C34.32195407 144.46909952 31.46381195 146.16353603 27.8125 148.25 C18.05716741 150.85142202 7.66900947 147.88444732 -2 146 C-2.309375 146.804375 -2.61875 147.60875 -2.9375 148.4375 C-4 151 -4 151 -5 152 C-14.48311447 152.77330118 -21.85198908 146.29193716 -28.8671875 140.609375 C-37.65642747 133.97720125 -46.21406641 133.3593668 -57 134 C-63.13607632 135.03904226 -69.08431532 136.89543056 -73 142 C-74.07177698 144.02602229 -75.10971662 146.07008592 -76.125 148.125 C-79.157719 154.12243982 -82.6773558 158.02999718 -87.82470703 162.30908203 C-92.21744267 165.97135952 -94.85192691 169.38018538 -96 175 C-97.67920011 194.1365288 -97.67920011 194.1365288 -90 211 C-85.46338346 215.81879843 -80.74509217 219.71270127 -75 223 C-76.40178321 226.23914878 -78.36493976 228.84503432 -80.52856445 231.61621094 C-103.82125503 261.72597903 -108.79020985 293.86824172 -108 331 C-110.79766348 327.551426 -113.44953192 324.02727857 -116.0625 320.4375 C-120.22919523 314.84971336 -124.74031507 309.7602719 -129.51953125 304.69140625 C-131.80699243 302.20942081 -133.92723702 299.66222005 -136 297 C-134.576875 296.6596875 -134.576875 296.6596875 -133.125 296.3125 C-129.84241868 295.31871416 -129.84241868 295.31871416 -128.6875 292.5625 C-128.460625 291.716875 -128.23375 290.87125 -128 290 C-127.67 289.01 -127.34 288.02 -127 287 C-126.9757282 285.58720807 -127.00764718 284.17296042 -127.078125 282.76171875 C-127.10390625 281.94123047 -127.1296875 281.12074219 -127.15625 280.27539062 C-127.21834922 278.56119337 -127.29627443 276.84749051 -127.390625 275.13476562 C-127.50000008 270.76318027 -127.47285817 267.99210042 -124.5234375 264.609375 C-123.69070313 263.74828125 -122.85796875 262.8871875 -122 262 C-121.21535566 257.68445612 -121.70708237 254.96245052 -124 251.3125 C-127.04039301 247.48858834 -130.57516981 245.86552074 -135 244 C-144.07993313 240.10046759 -149.50203998 235.51417997 -154.375 226.875 C-157.94493408 220.90560202 -163.82086255 217.90392458 -170.0625 215.25 C-174.68159651 213.08335793 -177.19233952 209.39069054 -180.140625 205.33984375 C-182.68202372 202.14173906 -184.45399282 200.21718832 -188.5859375 199.63671875 C-189.50632812 199.65347656 -190.42671875 199.67023438 -191.375 199.6875 C-192.29023438 199.69136719 -193.20546875 199.69523438 -194.1484375 199.69921875 C-197.31834827 200.0335792 -200.01816163 200.89610408 -203 202 C-203.6398903 200.13002931 -204.26077052 198.25355587 -204.875 196.375 C-205.22304688 195.33085938 -205.57109375 194.28671875 -205.9296875 193.2109375 C-209.03317425 182.12563069 -209.34049579 170.68348046 -209.3125 159.25 C-209.32826875 157.90494187 -209.34454357 156.55988958 -209.36132812 155.21484375 C-209.36823672 141.24566891 -205.97729002 129.20932002 -196 119 C-192.54954997 116.47013847 -189.2845133 114.33509043 -185.125 113.25 C-182.80991217 112.21364451 -182.80991217 112.21364451 -182.39453125 109.953125 C-182.09441923 108.3422673 -181.84517626 106.72093941 -181.65234375 105.09375 C-181 103 -181 103 -179.390625 101.72265625 C-176.12842709 100.73653433 -173.21264698 100.84941329 -169.8125 100.9375 C-167.54220791 100.99127623 -165.27083579 101.02056384 -163 101 C-161.60577439 99.82153527 -161.60577439 99.82153527 -161.71484375 96.50390625 C-161.78648225 90.65950681 -164.2484115 85.87007037 -166.59960938 80.62304688 C-168.7029572 75.65574665 -169.46437584 72.39988589 -168 67 C-166.80859375 64.55859375 -166.80859375 64.55859375 -165.4375 62.4375 C-163.2702786 58.74821271 -162.30630905 56.3603431 -163 52 C-163.91257306 49.21433941 -163.91257306 49.21433941 -165 47 C-153.50299401 33.16766467 -153.50299401 33.16766467 -147 31 C-142.86628854 47.57329896 -142.86628854 47.57329896 -142.5 53.6875 C-142.15953982 58.21407279 -141.14728027 60.67787082 -138 64 C-135.57190165 64.53300133 -135.57190165 64.53300133 -133 64 C-130.93352756 62.30145962 -130.93352756 62.30145962 -129.06640625 59.984375 C-123.54415287 54.14548651 -117.01322649 50.81433105 -109.9375 47.25 C-108.08534677 46.29835053 -106.23577189 45.34186257 -104.38687134 44.38391113 C-102.63692607 43.4775117 -100.88465518 42.57560669 -99.13232422 41.67382812 C-96.42474499 40.22697207 -93.83617229 38.70353293 -91.25390625 37.046875 C-88 35 -88 35 -86 35 C-85.76216797 33.89591797 -85.76216797 33.89591797 -85.51953125 32.76953125 C-84.10691496 26.86151726 -83.06946467 22.77262487 -78 19 C-76.9275 18.484375 -75.855 17.96875 -74.75 17.4375 C-71.83405098 16.32286689 -71.83405098 16.32286689 -71.328125 13.91015625 C-71.16570312 12.96462891 -71.16570312 12.96462891 -71 12 C-71.50974365 11.73783691 -72.0194873 11.47567383 -72.54467773 11.20556641 C-74.84543249 10.01802925 -77.14147295 8.82165039 -79.4375 7.625 C-80.23994141 7.2125 -81.04238281 6.8 -81.86914062 6.375 C-82.63291016 5.97539062 -83.39667969 5.57578125 -84.18359375 5.1640625 C-84.89056396 4.79748535 -85.59753418 4.4309082 -86.32592773 4.05322266 C-88 3 -88 3 -89 1 C-85.7324027 0.17411376 -82.46044997 -0.63311216 -79.1875 -1.4375 C-78.27806641 -1.66759766 -77.36863281 -1.89769531 -76.43164062 -2.13476562 C-51.84062422 -8.13045514 -24.27297692 -6.5298959 0 0 Z " fill="#D6EAB6" transform="translate(569,464)"/>
<path d="M0 0 C1.36141859 0.96141416 2.70343137 1.95277149 4 3 C3.195625 3.99 2.39125 4.98 1.5625 6 C-1.33671683 10.07211936 -2 13.00365143 -2 18 C-0.32455474 21.26711826 0.48343301 21.827811 4 23 C3.99097656 22.41992188 3.98195313 21.83984375 3.97265625 21.2421875 C4.13798776 16.88606166 4.52127762 13.78866792 7.75 10.6875 C12.86640018 6.89757394 18.90164929 5.48559092 25 4 C25.82113281 3.7421875 26.64226562 3.484375 27.48828125 3.21875 C29.95438341 2.62303083 31.51399397 2.46151494 34 3 C37.84514658 5.50381637 40.8331526 8.70294449 44 12 C45.42505859 13.32451172 45.42505859 13.32451172 46.87890625 14.67578125 C61.03058983 27.86637609 76.23325213 47.62696105 77.37109375 67.63671875 C77.61796285 77.79233366 77.18365537 85.99189967 72 95 C71.55011719 95.87140625 71.10023438 96.7428125 70.63671875 97.640625 C54.21014301 126.67364259 19.07191736 141.27318046 -10.65820312 152.42453003 C-24.98904273 157.80983408 -39.24198644 163.25647341 -53 170 C-53.66741211 170.31952637 -54.33482422 170.63905273 -55.02246094 170.96826172 C-68.54762913 177.49321475 -79.87219486 186.12401202 -89.9140625 197.296875 C-92 199 -92 199 -93.9375 199.015625 C-103.83627947 194.14122602 -111.38253945 185.33108008 -115 175 C-115.40798916 171.0492143 -115.3244429 167.09481983 -115.3125 163.125 C-115.32861328 162.06152344 -115.34472656 160.99804688 -115.36132812 159.90234375 C-115.36636161 151.79842824 -114.36400415 146.11552794 -108.75 139.9375 C-108.13640625 139.25945312 -107.5228125 138.58140625 -106.890625 137.8828125 C-105.17387013 136.17315165 -103.4317016 134.76562688 -101.5 133.3125 C-98.07903974 130.54677934 -96.51680443 127.41304038 -94.5625 123.5 C-90.79066038 116.11628717 -87.08731738 112.55036176 -79.375 109.625 C-68.19899519 107.51299909 -58.09590305 108.39212585 -48.515625 114.61328125 C-46.84096726 115.78606175 -45.17926428 116.97756547 -43.53125 118.1875 C-34.10322562 125.25685845 -34.10322562 125.25685845 -23 127 C-21.0645852 124.60943058 -21.0645852 124.60943058 -20 122 C-10.82129278 122.86800652 -10.82129278 122.86800652 -6.5 123.5625 C1.44958678 124.55619835 8.25682506 124.94168948 15 120 C17.24180162 117.31973545 17.24180162 117.31973545 16.8125 115 C15.84742786 112.6244378 15.05659365 111.54018027 13 110 C10.50716695 110.12275288 10.50716695 110.12275288 7.8125 110.75 C4.41964422 111.16848221 2.62511101 111.32662553 -0.4296875 109.73046875 C-4.46404306 106.33895007 -6.96357972 103.31165393 -8 98 C-8.66 98 -9.32 98 -10 98 C-10.268125 98.556875 -10.53625 99.11375 -10.8125 99.6875 C-12.10122647 102.19712523 -13.52926478 104.59334236 -15 107 C-17.296875 106.88671875 -17.296875 106.88671875 -20 106 C-21.703125 103.26953125 -21.703125 103.26953125 -23.25 99.8125 C-26.44563938 93.41419786 -29.64191076 90.15962072 -36 87 C-36.66 86.67 -37.32 86.34 -38 86 C-37.89386164 88.45224694 -37.89386164 88.45224694 -37 91 C-35.3523962 91.71247732 -33.68236471 92.37400383 -32 93 C-29.0454977 95.79479947 -28.09778209 97.40244275 -27.4375 101.4375 C-28.19264428 106.22008044 -29.47158505 107.70681272 -33 111 C-35.8125 111.875 -35.8125 111.875 -38 112 C-37.65221564 108.78299472 -37.49927596 107.40849852 -34.9375 105.3125 C-34.298125 104.879375 -33.65875 104.44625 -33 104 C-33 103.34 -33 102.68 -33 102 C-34.11375 101.3503125 -34.11375 101.3503125 -35.25 100.6875 C-38.30725265 98.8114586 -39.80664356 96.81023793 -42 94 C-44.65568911 91.34431089 -45.95839565 90.04734565 -49.75 89.875 C-58.02585376 92.73971861 -63.35298602 98.10540635 -68.76171875 104.828125 C-72.75193329 108.69995621 -77.2219011 109.28967 -82.625 109.3125 C-83.54539062 109.32925781 -84.46578125 109.34601563 -85.4140625 109.36328125 C-88.52006701 108.92693923 -89.86259853 108.29609485 -92 106 C-92.42578125 103.546875 -92.42578125 103.546875 -92.3125 100.75 C-92.27511719 99.77675781 -92.23773438 98.80351563 -92.19921875 97.80078125 C-91.54054054 88.54054054 -91.54054054 88.54054054 -89 86 C-85.65576501 85.61277279 -82.33142298 85.49254084 -78.96875 85.34375 C-75.88393229 85.29798671 -75.88393229 85.29798671 -74 83 C-74.27518916 79.65274469 -74.27518916 79.65274469 -75 76 C-75.2784375 74.2984375 -75.2784375 74.2984375 -75.5625 72.5625 C-75.706875 71.716875 -75.85125 70.87125 -76 70 C-72.72055367 67.62240141 -70.01974438 65.93628 -66.125 64.8125 C-58.70131167 62.22416422 -53.96992988 54.45113605 -50 48 C-47 49 -47 49 -45.3125 51.0625 C-42.55432903 53.3734 -40.69519377 53.52598125 -37.14453125 53.30859375 C-29.96136049 52.27494987 -26.02846289 49.65350185 -21.4765625 44 C-18.18911211 39.89831835 -18.18911211 39.89831835 -17 35 C-17.969375 34.690625 -18.93875 34.38125 -19.9375 34.0625 C-23 33 -23 33 -24 32 C-24.46167861 29.30687478 -24.42697209 27.63597941 -22.8828125 25.3359375 C-21.63593427 23.84954593 -20.32142331 22.42053006 -19 21 C-20.44037669 21.93307421 -21.87718985 22.87165077 -23.3125 23.8125 C-24.11300781 24.33457031 -24.91351562 24.85664062 -25.73828125 25.39453125 C-29.03873876 27.73734306 -30.70472942 29.11418827 -32 33 C-32.26565622 35.79993219 -32.44378153 38.59943535 -32.62109375 41.40625 C-33 44 -33 44 -35 47 C-38 47.3125 -38 47.3125 -41 47 C-43.75927344 44.24072656 -43.51783243 41.78845948 -44 38 C-46.18991067 35.81008933 -51.15215659 36.6123109 -54.1171875 36.4765625 C-57 36 -57 36 -58.85546875 34.640625 C-60.69185957 32.00825591 -60.43691456 30.12081829 -60 27 C-57.50438561 23.46688299 -54.8023753 20.8623968 -51.375 18.25 C-47.76406494 15.43442508 -44.31447109 12.52998366 -40.9375 9.4375 C-28.52438515 -1.85960925 -16.71367755 -7.60566226 0 0 Z " fill="#5B9E62" transform="translate(587,488)"/>
<path d="M0 0 C77.52590461 0 77.52590461 0 91.80078125 13.625 C101.01631158 23.57711801 102.50652193 34.57428143 102.27734375 47.7265625 C101.83289932 57.76083535 97.27001224 65.65558759 90.33984375 72.68359375 C86.32211022 76.3535508 80.68236966 81 75 81 C75.36649658 81.52207031 75.73299316 82.04414062 76.1105957 82.58203125 C82.85739807 92.19656665 89.5887214 101.8194635 96.21142578 111.52001953 C99.57091051 116.42363093 103.05845802 121.21382606 106.63671875 125.9609375 C108 128 108 128 108 130 C103.87518183 130.2740934 99.75394478 130.47243071 95.62207031 130.60424805 C94.22074028 130.65922429 92.82003164 130.73405021 91.42089844 130.82983398 C80.01231742 131.5906773 80.01231742 131.5906773 75.60205078 128.10449219 C73.40908759 125.18827659 71.71435905 122.22217694 70 119 C69.23726056 117.66871897 68.46769728 116.34133101 67.69238281 115.01733398 C67.28441467 114.32034897 66.87644653 113.62336395 66.45611572 112.90525818 C64.72309527 109.96843364 62.96950848 107.04432429 61.20556641 104.12597656 C60.31703243 102.62280532 59.45488549 101.10372793 58.61962891 99.5703125 C58.20503418 98.81492187 57.79043945 98.05953125 57.36328125 97.28125 C57.00645264 96.6114209 56.64962402 95.9415918 56.28198242 95.25146484 C53.9310808 91.84493209 50.87245769 88.97996488 48 86 C37.11 85.505 37.11 85.505 26 85 C26 99.85 26 114.7 26 130 C17.42 130 8.84 130 0 130 C0 87.1 0 44.2 0 0 Z " fill="#125233" transform="translate(613,930)"/>
<path d="M0 0 C1.39120471 0.00015906 2.78241534 0.00585033 4.17358398 0.01586914 C4.90463852 0.01728409 5.63569305 0.01869904 6.38890076 0.02015686 C8.73253406 0.02577131 11.07607313 0.03832617 13.41967773 0.05102539 C15.00496282 0.05603853 16.59024939 0.06060176 18.17553711 0.06469727 C22.06945383 0.07574542 25.96329979 0.09301967 29.85717773 0.11352539 C30.25807617 1.24628906 30.65897461 2.37905273 31.07202148 3.54614258 C38.62896709 24.88943461 46.22687342 46.21641018 53.98217773 67.48852539 C58.97682297 81.19452465 63.96965093 94.90108088 68.91473389 108.62506104 C69.53877863 110.35558185 70.16396647 112.08569092 70.79034424 113.81536865 C71.6490019 116.18710657 72.50364398 118.56025207 73.35717773 120.93383789 C73.61256317 121.63675964 73.86794861 122.3396814 74.131073 123.06390381 C75.85717773 127.88492821 75.85717773 127.88492821 75.85717773 130.11352539 C66.28717773 130.11352539 56.71717773 130.11352539 46.85717773 130.11352539 C45.37217773 126.02977539 43.88717773 121.94602539 42.35717773 117.73852539 C41.88731445 116.45155762 41.41745117 115.16458984 40.93334961 113.83862305 C40.56790039 112.82848145 40.20245117 111.81833984 39.82592773 110.77758789 C39.44887695 109.74069824 39.07182617 108.70380859 38.68334961 107.63549805 C37.85717773 105.11352539 37.85717773 105.11352539 37.85717773 103.11352539 C21.35717773 103.11352539 4.85717773 103.11352539 -12.14282227 103.11352539 C-12.47282227 105.09352539 -12.80282227 107.07352539 -13.14282227 109.11352539 C-13.63255463 110.76831037 -14.16353449 112.41149252 -14.73657227 114.03930664 C-15.0446582 114.91780273 -15.35274414 115.79629883 -15.67016602 116.70141602 C-16.15163086 118.05009766 -16.15163086 118.05009766 -16.64282227 119.42602539 C-16.96379883 120.34448242 -17.28477539 121.26293945 -17.61547852 122.20922852 C-20.00654548 128.9772486 -20.00654548 128.9772486 -21.14282227 130.11352539 C-23.28841053 130.20128144 -25.43686648 130.22047758 -27.58422852 130.21118164 C-28.8894043 130.20795898 -30.19458008 130.20473633 -31.53930664 130.20141602 C-32.92797916 130.1930594 -34.31665104 130.18459444 -35.70532227 130.17602539 C-37.09789882 130.17101205 -38.49047708 130.16644886 -39.88305664 130.16235352 C-43.30302097 130.15051973 -46.72290071 130.13403419 -50.14282227 130.11352539 C-47.91536857 122.31430561 -45.27754997 114.69704936 -42.52172852 107.07055664 C-42.06437011 105.79904612 -41.60722777 104.52745786 -41.15028381 103.25579834 C-39.9256196 99.84993643 -38.69754219 96.44531525 -37.46857452 93.04100418 C-36.44551138 90.20608713 -35.42416699 87.37055203 -34.40275192 84.53504086 C-31.24795764 75.77779421 -28.08599779 67.02314458 -24.92189789 58.26925659 C-24.15311114 56.14199508 -23.38463542 54.01462148 -22.61627197 51.88720703 C-19.77733411 44.02719832 -16.93464484 36.16856582 -14.08590698 28.31210327 C-13.20773558 25.88957339 -12.33039475 23.46674227 -11.45388794 21.04360962 C-10.2410472 17.69218287 -9.0245464 14.34210931 -7.80688477 10.99243164 C-7.44756363 9.99765808 -7.08824249 9.00288452 -6.71803284 7.97796631 C-6.39108932 7.08112122 -6.06414581 6.18427612 -5.72729492 5.26025391 C-5.44359039 4.47844254 -5.15988586 3.69663116 -4.86758423 2.89112854 C-3.64082721 -0.11770368 -3.50054474 0.12644708 0 0 Z " fill="#135334" transform="translate(787.142822265625,929.886474609375)"/>
<path d="M0 0 C10.89 0 21.78 0 33 0 C37.82068187 12.21405924 42.37516478 24.48789232 46.73641968 36.87258911 C48.4855131 41.83801745 50.2445832 46.79990738 52.00390625 51.76171875 C52.52383904 53.22852333 52.52383904 53.22852333 53.05427551 54.72496033 C55.88138844 62.6898207 58.7640187 70.63250896 61.6875 78.5625 C65.58758289 89.14310764 69.45706144 99.73409562 73.29238892 110.33834839 C73.88599993 111.97913206 74.48021152 113.61969858 75.07504272 115.26004028 C75.89929043 117.53346027 76.72144405 119.80762609 77.54296875 122.08203125 C77.79236206 122.76896057 78.04175537 123.45588989 78.29870605 124.16363525 C80 128.88547907 80 128.88547907 80 130 C70.43 130 60.86 130 51 130 C47.625 120.8125 47.625 120.8125 46.57275391 117.94458008 C46.29351074 117.18556396 46.01426758 116.42654785 45.7265625 115.64453125 C45.42782227 114.83193848 45.12908203 114.0193457 44.82128906 113.18212891 C44.17513397 111.46532326 43.48265403 109.76594862 42.7734375 108.07421875 C42 106 42 106 42 103 C25.5 103 9 103 -8 103 C-8.99 106.3 -9.98 109.6 -11 113 C-12.04339536 116.05148716 -13.09816459 119.09057627 -14.1875 122.125 C-15.115625 124.72375 -16.04375 127.3225 -17 130 C-26.9 130 -36.8 130 -47 130 C-40.1120415 110.46839164 -33.09606609 90.99156551 -25.96488953 71.54779053 C-25.64518692 70.67608215 -25.32548431 69.80437378 -24.99609375 68.90625 C-24.51285393 67.58877777 -24.51285393 67.58877777 -24.01985168 66.24468994 C-20.47176191 56.56701659 -16.94538217 46.881462 -13.42294312 37.19442749 C-12.73467612 35.30163813 -12.04622568 33.40891547 -11.35757446 31.51626587 C-10.39157251 28.86127001 -9.4261562 26.20606195 -8.4609375 23.55078125 C-8.04612877 22.41080688 -8.04612877 22.41080688 -7.62294006 21.24780273 C-5.05368811 14.17497886 -2.531078 7.08701839 0 0 Z " fill="#135334" transform="translate(337,930)"/>
<path d="M0 0 C0 8.91 0 17.82 0 27 C-3.96 25.02 -7.92 23.04 -12 21 C-19.26149286 18.57950238 -25.78677651 17.7217533 -33.375 17.625 C-34.51702881 17.60397217 -34.51702881 17.60397217 -35.68212891 17.58251953 C-41.63947089 17.63370621 -45.68637038 19.11256531 -50.375 22.9375 C-52.96398556 27.81674201 -52.70486873 32.60100548 -52 38 C-50.14461587 42.04811083 -47.67798478 43.32334175 -43.75 45.0625 C-39.29051075 46.70685444 -34.74243784 47.83990337 -30.125 48.9375 C-17.03314754 52.06301851 -5.02557294 56.63043833 3 68 C8.74022098 79.11198182 9.80695627 90.33759834 6.0390625 102.43359375 C2.23029903 111.84095314 -4.09305134 118.26984151 -13.125 122.6875 C-33.55253096 131.27981289 -54.10245355 129.199892 -74.35546875 121.18359375 C-77 120 -77 120 -80 118 C-80.34057617 115.20263672 -80.34057617 115.20263672 -80.29296875 111.6796875 C-80.28330078 110.42285156 -80.27363281 109.16601562 -80.26367188 107.87109375 C-80.23853516 106.55238281 -80.21339844 105.23367188 -80.1875 103.875 C-80.17245483 102.53517097 -80.15876613 101.19532596 -80.14648438 99.85546875 C-80.11102872 96.56991158 -80.06160849 93.28515418 -80 90 C-79.29222412 90.47123291 -78.58444824 90.94246582 -77.85522461 91.42797852 C-66.43410739 98.88995518 -56.10904868 102.41057762 -42.4375 102.5 C-41.60484619 102.50636475 -40.77219238 102.51272949 -39.91430664 102.51928711 C-34.57492602 102.40770187 -30.7291932 101.51257263 -26 99 C-22.52357775 95.34060816 -21.12556073 92.69506982 -20.75 87.625 C-21.0952012 82.61958265 -22.55794456 80.30295799 -26.23999023 76.97607422 C-29.18253979 74.86930764 -31.49232 74.00425407 -34.97265625 73.0703125 C-36.12056641 72.74933594 -37.26847656 72.42835938 -38.45117188 72.09765625 C-40.83126777 71.45661366 -43.21147356 70.81597889 -45.59179688 70.17578125 C-58.19537404 66.65099254 -71.02036286 62.11881967 -77.8984375 50.29296875 C-82.77420692 40.14376078 -83.66455594 29.08724412 -80.0390625 18.4140625 C-75.19030207 7.14889728 -67.10087255 0.65840187 -56 -4 C-55.236875 -4.32226562 -54.47375 -4.64453125 -53.6875 -4.9765625 C-36.41041745 -10.90171581 -16.11067819 -7.16030142 0 0 Z " fill="#135234" transform="translate(264,935)"/>
<path d="M0 0 C28.38 0 56.76 0 86 0 C86 7.92 86 15.84 86 24 C66.53 24 47.06 24 27 24 C27 33.57 27 43.14 27 53 C41.85 53 56.7 53 72 53 C72 60.92 72 68.84 72 77 C56.82 77 41.64 77 26 77 C26 94.49 26 111.98 26 130 C17.42 130 8.84 130 0 130 C0 87.1 0 44.2 0 0 Z " fill="#155838" transform="translate(439,930)"/>
<path d="M0 0 C4.36689538 2.51713072 7.23003613 5.72443754 9.8203125 10.015625 C12.37116481 13.50818981 14.57505948 14.74066486 18.4375 16.625 C25.44498079 20.0840809 29.73866765 23.13387952 33.8125 29.875 C39.19992836 38.15250675 44.5543332 41.61994798 53.66796875 45.0078125 C58.81144551 47.1961594 62.77720313 50.81347397 65 56 C65.5 59.4375 65.5 59.4375 65 63 C64.16597656 63.87011719 63.33195312 64.74023438 62.47265625 65.63671875 C59.54641285 68.97884057 59.57186318 71.57192196 59.75585938 75.890625 C59.81580078 76.71046875 59.87574219 77.5303125 59.9375 78.375 C60.40507829 85.14682355 60.12159332 90.340011 56 96 C53 98 53 98 50.53515625 97.8046875 C47.81276529 96.94056957 46.50850113 96.06164087 44.4375 94.125 C43.75042969 93.49207031 43.06335938 92.85914063 42.35546875 92.20703125 C41.18951172 91.11455078 41.18951172 91.11455078 40 90 C38.58860893 88.72835062 37.17719932 87.45672173 35.76538086 86.18554688 C11.32971006 64.04502608 -9.04834927 37.71908744 -17 5 C-16 2 -16 2 -13.76953125 0.84765625 C-9.10047311 -0.58137847 -4.81506038 -0.88343545 0 0 Z " fill="#5C9E62" transform="translate(383,663)"/>
<path d="M0 0 C8.25 0 16.5 0 25 0 C25 42.9 25 85.8 25 130 C16.75 130 8.5 130 0 130 C0 87.1 0 44.2 0 0 Z " fill="#125132" transform="translate(551,930)"/>
<path d="M0 0 C0 4.13819444 -2.20808617 5.97558346 -4.8125 8.9375 C-5.30661377 9.50871582 -5.80072754 10.07993164 -6.30981445 10.66845703 C-7.86316535 12.45474907 -9.42931649 14.22893922 -11 16 C-11.72848145 16.82540283 -11.72848145 16.82540283 -12.47167969 17.66748047 C-17.97160913 23.87325301 -23.57677723 29.73590831 -30 35 C-30.49105728 35.40598419 -30.98211456 35.81196838 -31.48805237 36.23025513 C-41.03644864 44.10383925 -50.90693149 51.21352598 -61.25 58 C-62.71057378 58.96619992 -64.17085713 59.932839 -65.63085938 60.89990234 C-73.92000913 66.37849492 -82.27200091 71.74551147 -90.70581055 76.99902344 C-102.30413975 84.26506288 -113.51016741 92.20417764 -124 101 C-124.78987305 101.6487207 -124.78987305 101.6487207 -125.59570312 102.31054688 C-153.82981722 125.51535993 -175.71216286 157.92282003 -180 195 C-180.33 195 -180.66 195 -181 195 C-181.58931724 158.21753758 -173.83723419 130.23384144 -148 103 C-147.11699219 102.05253906 -146.23398437 101.10507812 -145.32421875 100.12890625 C-132.72102808 86.87450008 -117.72453126 77.15654523 -102 68 C-101.20529297 67.53658203 -100.41058594 67.07316406 -99.59179688 66.59570312 C-91.25121646 61.75085601 -82.85377145 57.01199499 -74.40234375 52.36328125 C-46.71076885 37.21949394 -46.71076885 37.21949394 -21 19 C-19.50339844 17.80697266 -19.50339844 17.80697266 -17.9765625 16.58984375 C-12.70834264 12.37079417 -12.70834264 12.37079417 -7.8125 7.73828125 C-6 6 -6 6 -4 6 C-3.71125 5.38125 -3.4225 4.7625 -3.125 4.125 C-2 2 -2 2 0 0 Z " fill="#4B8C53" transform="translate(661,639)"/>
<path d="M0 0 C1.02673828 0.55494141 1.02673828 0.55494141 2.07421875 1.12109375 C5.44991816 2.97608974 8.61822604 4.95416148 11.625 7.375 C11.4375 9.1875 11.4375 9.1875 10.625 11.375 C8.19338921 13.0636186 5.72094554 14.32964393 3.046875 15.59375 C-0.12724562 17.92826452 -0.10036606 19.50849405 -0.875 23.3125 C-4.63148491 33.99946181 -15.82423168 37.66244984 -25.375 42.375 C-28.46621102 43.9224196 -31.54980015 45.48350315 -34.625 47.0625 C-35.32173828 47.41594482 -36.01847656 47.76938965 -36.73632812 48.13354492 C-41.92710724 50.87053551 -45.75101356 54.17245441 -49.515625 58.72265625 C-51.375 60.375 -51.375 60.375 -53.96875 60.76953125 C-56.375 60.375 -56.375 60.375 -58.625 58 C-61.19449386 54.14575921 -61.70753995 51.47469628 -62.3125 46.875 C-63.01370568 41.69563985 -63.88160572 36.63894604 -65.10546875 31.55859375 C-65.44779562 28.78524996 -65.30597165 27.02660674 -64.375 24.375 C-51.87183915 12.17839651 -34.51716513 5.21083974 -18.375 -0.625 C-17.11792236 -1.13160156 -17.11792236 -1.13160156 -15.83544922 -1.6484375 C-9.31725624 -4.03823328 -5.90499117 -3.51076473 0 0 Z " fill="#5B9D61" transform="translate(487.375,468.625)"/>
<path d="M0 0 C5.053125 -0.0825 10.10625 -0.165 15.3125 -0.25 C17.66822144 -0.30462402 17.66822144 -0.30462402 20.0715332 -0.36035156 C28.65124809 -0.42774148 37.85321257 -0.39840068 44.73608398 5.48364258 C49.03632823 10.37196734 49.34716561 14.91159968 49.28125 21.140625 C48.73546682 26.68942069 46.52039164 30.47960836 42.625 34.375 C37.23452878 37.71195837 32.20540512 38.28591644 25.9765625 38.1953125 C25.31422607 38.19329834 24.65188965 38.19128418 23.96948242 38.18920898 C21.52125005 38.17883155 19.07311726 38.15090964 16.625 38.125 C8.395625 38.063125 8.395625 38.063125 0 38 C0 25.46 0 12.92 0 0 Z " fill="#FDFDFD" transform="translate(639,954)"/>
<path d="M0 0 C5.7418816 3.32486779 9.61711915 8.16048171 11.6875 14.4375 C12.6280158 21.65541197 11.93100309 28.38374905 7.6875 34.4375 C1.01060904 40.81883442 -4.67945869 41.85093528 -13.78515625 41.78515625 C-20.06479944 41.16623239 -23.46230584 38.3850728 -27.6875 33.9375 C-31.91929809 27.4270414 -32.20388604 21.03725522 -31.3125 13.4375 C-28.96238292 7.1133652 -24.03255413 2.18956529 -17.95703125 -0.671875 C-12.14035687 -2.63081408 -5.62829659 -2.52190982 0 0 Z " fill="#155538" transform="translate(394.3125,1111.5625)"/>
<path d="M0 0 C5.32773041 3.10693108 8.78184515 7.17336287 11.0625 12.875 C12.45133458 20.79135713 12.04334928 26.56719546 7.6875 33.4375 C3.6984189 37.77828662 -0.53002053 41.11196361 -6.484375 41.80859375 C-14.10249432 41.94997806 -19.56861803 41.74623939 -25.3125 36.4375 C-31.14285981 30.14684863 -31.77001283 25.30881674 -31.62109375 16.85546875 C-30.98931814 9.85795412 -27.40978582 6.11849611 -22.19140625 1.69921875 C-15.65267066 -2.69165775 -7.18627406 -3.22000357 0 0 Z " fill="#164E32" transform="translate(517.3125,1111.5625)"/>
<path d="M0 0 C2.11688111 3.4399318 2.31881035 5.99770396 2 10 C0.59315024 12.83001081 -1.0630741 15.37588263 -2.78515625 18.0234375 C-4.88722878 23.17385314 -3.59477431 27.81795898 -1.58984375 32.78125 C-0.7768118 34.65024393 0.06426218 36.50383082 0.91601562 38.35546875 C3.02100018 43.21783017 3.43864002 46.80294863 3 52 C1 54 1 54 -2.1171875 54.16015625 C-3.35726562 54.12792969 -4.59734375 54.09570312 -5.875 54.0625 C-11.51900951 53.87964394 -11.51900951 53.87964394 -17 55 C-16.94457031 55.58007812 -16.88914062 56.16015625 -16.83203125 56.7578125 C-16.80934026 59.50796 -16.99165651 61.42640365 -18 64 C-20.62817921 65.97442511 -23.2971214 67.27212816 -26.26953125 68.66796875 C-29.56555108 70.27589831 -31.64000329 72.21091298 -34 75 C-34.680625 75.763125 -35.36125 76.52625 -36.0625 77.3125 C-38.49304682 80.68390365 -40.24689937 84.24202366 -42 88 C-42.33 88 -42.66 88 -43 88 C-42.88154006 59.39192381 -26.82668281 29.56263779 -9 8 C-8.30132812 7.14792969 -7.60265625 6.29585937 -6.8828125 5.41796875 C-2.30932574 0 -2.30932574 0 0 0 Z " fill="#5B9E62" transform="translate(405,512)"/>
<path d="M0 0 C9.09087267 13.63630901 8.52549272 37.13662238 8.44604492 52.92724609 C8.4374984 55.50048169 8.4665375 58.0715099 8.49804688 60.64453125 C8.58134386 80.59392293 5.57250794 106.14549188 -9.08984375 121.13671875 C-13.93730295 125.45823301 -16.3821566 127.14386616 -23 127 C-22.4214524 121.32472357 -20.26447723 116.75205036 -17.9375 111.625 C-10.3625529 94.40422406 -4.25361075 76.55976593 -1 58 C-0.77570312 56.75863281 -0.55140625 55.51726562 -0.3203125 54.23828125 C1.13857143 44.35584146 1.17905979 34.46985161 1.1875 24.5 C1.18858765 23.80154968 1.18967529 23.10309937 1.1907959 22.38348389 C1.18946999 14.86229352 1.03161473 7.46063772 0 0 Z " fill="#529257" transform="translate(559,327)"/>
<path d="M0 0 C3.50625 -0.061875 7.0125 -0.12375 10.625 -0.1875 C11.71893066 -0.21481201 12.81286133 -0.24212402 13.93994141 -0.27026367 C19.38231048 -0.31669005 23.3271334 -0.13294465 28 3 C31.65536907 6.89906034 31.49974548 11.30065979 31.35546875 16.3984375 C30.86899638 19.95877374 29.74762305 21.71031413 27 24 C24.859375 24.6171875 24.859375 24.6171875 23 25 C23.30292969 25.47945068 23.60585938 25.95890137 23.91796875 26.45288086 C25.28096482 28.61296752 26.64052314 30.77519693 28 32.9375 C28.47695313 33.69224609 28.95390625 34.44699219 29.4453125 35.22460938 C30.12207031 36.30258789 30.12207031 36.30258789 30.8125 37.40234375 C31.23144531 38.06741943 31.65039062 38.73249512 32.08203125 39.41772461 C33 41 33 41 33 42 C29.71664015 42.88924329 27.24949597 43.09651713 24 42 C20.76237408 38.15631603 16 32.1976958 16 27 C13.03 27 10.06 27 7 27 C7 31.95 7 36.9 7 42 C4.69 42 2.38 42 0 42 C0 28.14 0 14.28 0 0 Z " fill="#155939" transform="translate(596,1111)"/>
<path d="M0 0 C7 0 7 0 8.77270508 1.34521484 C9.18415771 1.96090332 9.59561035 2.5765918 10.01953125 3.2109375 C10.48423828 3.87867188 10.94894531 4.54640625 11.42773438 5.234375 C11.88470703 5.94078125 12.34167969 6.6471875 12.8125 7.375 C13.75562331 8.75841769 14.69959744 10.14125583 15.64453125 11.5234375 C16.05034424 12.14138184 16.45615723 12.75932617 16.87426758 13.39599609 C18.03986236 15.15491507 18.03986236 15.15491507 20 17 C20.32798584 16.52054932 20.65597168 16.04109863 20.99389648 15.54711914 C22.47399706 13.38482365 23.95572642 11.22364932 25.4375 9.0625 C25.95376953 8.30775391 26.47003906 7.55300781 27.00195312 6.77539062 C27.49501953 6.05673828 27.98808594 5.33808594 28.49609375 4.59765625 C28.95169678 3.93258057 29.4072998 3.26750488 29.87670898 2.58227539 C31 1 31 1 32 0 C34.31 0 36.62 0 39 0 C39 13.86 39 27.72 39 42 C36.69 42 34.38 42 32 42 C31.67 33.09 31.34 24.18 31 15 C27.37 19.95 23.74 24.9 20 30 C15 25 15 25 8 15 C7.67 23.91 7.34 32.82 7 42 C4.69 42 2.38 42 0 42 C0 28.14 0 14.28 0 0 Z " fill="#145234" transform="translate(711,1111)"/>
<path d="M0 0 C0.66 0 1.32 0 2 0 C2.30703857 0.92635254 2.61407715 1.85270508 2.93041992 2.80712891 C4.09368305 6.31531535 5.25907827 9.82279069 6.42504883 13.33007812 C6.9249601 14.83477423 7.42432833 16.33965089 7.9230957 17.84472656 C10.86706308 26.72702895 13.8809825 35.57004714 17.1105957 44.35302734 C18 47 18 47 18 49 C6.78 49 -4.44 49 -16 49 C-13.75 38.875 -13.75 38.875 -12.48779297 35.30639648 C-12.06758377 34.10617104 -12.06758377 34.10617104 -11.6388855 32.88169861 C-11.34297516 32.05319901 -11.04706482 31.2246994 -10.7421875 30.37109375 C-10.43427277 29.49598648 -10.12635803 28.62087921 -9.80911255 27.71925354 C-8.83592261 24.95692936 -7.85559529 22.19720289 -6.875 19.4375 C-6.2091596 17.55160022 -5.54379051 15.66553396 -4.87890625 13.77929688 C-3.25804319 9.18425656 -1.63077929 4.59152991 0 0 Z " fill="#FBFCFC" transform="translate(353,961)"/>
<path d="M0 0 C1.70002485 2.55003727 2.61134971 4.40591078 3.60400391 7.24023438 C3.90416412 8.09121704 4.20432434 8.94219971 4.51358032 9.81896973 C4.83136444 10.73464722 5.14914856 11.65032471 5.4765625 12.59375 C5.80667328 13.53682007 6.13678406 14.47989014 6.47689819 15.45153809 C7.17322902 17.44465909 7.86739972 19.43853589 8.55957031 21.43310547 C9.62163436 24.49031183 10.69316079 27.544085 11.765625 30.59765625 C12.4406775 32.53365435 13.11517551 34.4698459 13.7890625 36.40625 C14.11089508 37.32192749 14.43272766 38.23760498 14.76431274 39.18103027 C15.05816864 40.03201294 15.35202454 40.88299561 15.65478516 41.75976562 C15.91522614 42.50794556 16.17566711 43.25612549 16.44400024 44.02697754 C17 46 17 46 17 49 C5.78 49 -5.44 49 -17 49 C-15.133636 42.15666533 -13.25868753 35.52341996 -10.8984375 28.8671875 C-10.61650543 28.06386993 -10.33457336 27.26055237 -10.0440979 26.43289185 C-9.45606491 24.76026965 -8.86616108 23.08830403 -8.27441406 21.41699219 C-7.36526801 18.84749471 -6.46350883 16.27548572 -5.5625 13.703125 C-4.98740958 12.07016085 -4.41190434 10.43734273 -3.8359375 8.8046875 C-3.56615082 8.03502655 -3.29636414 7.2653656 -3.0184021 6.47238159 C-1.11537783 1.11537783 -1.11537783 1.11537783 0 0 Z " fill="#FBFCFC" transform="translate(800,961)"/>
<path d="M0 0 C28.38 0 56.76 0 86 0 C86 7.92 86 15.84 86 24 C56.3 23.505 56.3 23.505 26 23 C26 22.67 26 22.34 26 22 C45.47 22 64.94 22 85 22 C85 15.4 85 8.8 85 2 C57.61 2 30.22 2 2 2 C2 43.58 2 85.16 2 128 C9.59 128 17.18 128 25 128 C24.98839844 124.25785156 24.97679687 120.51570313 24.96484375 116.66015625 C24.95705453 113.05281662 24.950977 109.44547791 24.94506836 105.83813477 C24.94002637 103.32283105 24.93319297 100.80753028 24.92456055 98.29223633 C24.91248906 94.68570225 24.90677051 91.07920677 24.90234375 87.47265625 C24.89718246 86.34038101 24.89202118 85.20810577 24.88670349 84.04151917 C24.88659019 82.48001381 24.88659019 82.48001381 24.88647461 80.88696289 C24.884254 79.96540909 24.88203339 79.04385529 24.87974548 78.09437561 C25 76 25 76 26 75 C27.38160115 74.9072167 28.76788038 74.88252957 30.15258789 74.88647461 C31.03342545 74.88655014 31.914263 74.88662567 32.8217926 74.88670349 C33.77907761 74.89186478 34.73636261 74.89702606 35.72265625 74.90234375 C37.18547279 74.90446617 37.18547279 74.90446617 38.67784119 74.90663147 C41.80609143 74.91224867 44.93427123 74.92480407 48.0625 74.9375 C50.17773334 74.94251278 52.29296781 74.94707607 54.40820312 74.95117188 C59.60551801 74.96137469 64.80267975 74.98094669 70 75 C70 68.4 70 61.8 70 55 C55.81 55 41.62 55 27 55 C27 54.67 27 54.34 27 54 C41.85 54 56.7 54 72 54 C72 61.59 72 69.18 72 77 C56.82 77 41.64 77 26 77 C26 94.49 26 111.98 26 130 C17.42 130 8.84 130 0 130 C0 87.1 0 44.2 0 0 Z " fill="#083919" transform="translate(439,930)"/>
<path d="M0 0 C9.57 0 19.14 0 29 0 C29 2.31 29 4.62 29 7 C21.74 7 14.48 7 7 7 C7 10.3 7 13.6 7 17 C12.94 17 18.88 17 25 17 C25 19.31 25 21.62 25 24 C19.06 24 13.12 24 7 24 C7 27.63 7 31.26 7 35 C14.26 35 21.52 35 29 35 C29 37.31 29 39.62 29 42 C19.43 42 9.86 42 0 42 C0 28.14 0 14.28 0 0 Z " fill="#243C2A" transform="translate(275,1111)"/>
<path d="M0 0 C4.69994029 1.71728588 7.20959499 3.86606666 10 8 C11.55417619 12.66252858 11.54448802 16.48753327 9.875 21.125 C7.65611623 24.52728845 5.68750071 27.23446936 2 29 C-2.64566733 29.93193628 -6.94251482 30.10562371 -11.1953125 27.8203125 C-14.59920976 25.07155864 -17.06515002 22.36263322 -18 18 C-18.45122245 13.2621643 -18.50652977 11.01305955 -16.375 6.75 C-11.55431751 1.16815712 -7.28148559 -1.19416364 0 0 Z " fill="#FBFCFC" transform="translate(388,1117)"/>
<path d="M0 0 C3.99158481 2.07158199 6.51119161 4.04932385 8.0390625 8.2734375 C8.69332895 13.62206569 8.71441507 17.87270625 6.3515625 22.7734375 C2.47666869 26.96251189 -0.19871063 28.44603265 -5.8984375 28.7109375 C-10.64375384 28.5485234 -13.39954859 27.57423698 -16.9609375 24.2734375 C-20.49989701 19.31889418 -20.81337312 14.16386339 -19.9609375 8.2734375 C-18.1652656 4.47490078 -16.66477435 2.75332626 -13.2109375 0.3984375 C-8.60696782 -1.19524431 -4.58098521 -1.69733715 0 0 Z " fill="#FBFDFC" transform="translate(512.9609375,1117.7265625)"/>
<path d="M0 0 C2.31 0 4.62 0 7 0 C7.01458252 0.82201904 7.02916504 1.64403809 7.04418945 2.4909668 C7.11876333 6.22361323 7.21539512 9.95537459 7.3125 13.6875 C7.33505859 14.98107422 7.35761719 16.27464844 7.38085938 17.60742188 C7.41630859 18.85458984 7.45175781 20.10175781 7.48828125 21.38671875 C7.51446533 22.53358154 7.54064941 23.68044434 7.56762695 24.86206055 C8.04134563 28.30006512 8.94532696 30.22800202 11 33 C13.33937907 34.16968953 14.77369368 34.13364221 17.375 34.125 C18.14585937 34.12757812 18.91671875 34.13015625 19.7109375 34.1328125 C21.9328189 34.00389788 23.86618508 33.61383717 26 33 C27.08895891 29.41922407 27.20189808 25.99531977 27.31640625 22.265625 C27.35830078 20.97011719 27.40019531 19.67460938 27.44335938 18.33984375 C27.48316671 16.97656524 27.52287906 15.61328394 27.5625 14.25 C27.60572274 12.87108125 27.64933821 11.49217474 27.69335938 10.11328125 C27.79943958 6.7422881 27.9014985 3.37122174 28 0 C30.31 0 32.62 0 35 0 C35.09935088 4.30495015 35.17169268 8.60928183 35.21972656 12.91503906 C35.23976332 14.37772252 35.26700104 15.84032666 35.30175781 17.30273438 C35.35063225 19.4129601 35.37304659 21.52212136 35.390625 23.6328125 C35.41157227 24.90012207 35.43251953 26.16743164 35.45410156 27.47314453 C34.77171561 32.77300876 32.33408771 35.79606719 28.4375 39.3125 C23.16636377 42.96174816 17.18604852 42.60551269 11 42 C7.4375 40.1875 7.4375 40.1875 5 38 C4.4225 37.54625 3.845 37.0925 3.25 36.625 C-0.06408933 32.31668388 -0.24166816 27.30850169 -0.1953125 22.0703125 C-0.18886719 20.78125 -0.18242188 19.4921875 -0.17578125 18.1640625 C-0.15907463 16.81770558 -0.14214479 15.47135141 -0.125 14.125 C-0.11495664 12.75521483 -0.10583317 11.38542258 -0.09765625 10.015625 C-0.07414412 6.67690244 -0.0412793 3.33854239 0 0 Z " fill="#174B31" transform="translate(543,1111)"/>
<path d="M0 0 C1 3 1 3 0.0625 5.1875 C-0.4634375 6.0846875 -0.4634375 6.0846875 -1 7 C-1.763125 6.690625 -2.52625 6.38125 -3.3125 6.0625 C-8.27373871 4.10108005 -11.7116181 3.82940704 -17 4 C-18.29633621 5.06645115 -18.29633621 5.06645115 -18.0625 7.5625 C-18.041875 8.366875 -18.02125 9.17125 -18 10 C-17.443125 10.24234375 -16.88625 10.4846875 -16.3125 10.734375 C-14.7114141 11.43755462 -13.11396972 12.14906246 -11.51953125 12.8671875 C-9.94111358 13.57686366 -8.35598439 14.27199263 -6.76171875 14.9453125 C-2.00657053 17.07662187 0.80717285 19.04230383 3 24 C3.32935766 28.29853966 2.48024639 31.23822986 0.1875 34.875 C-4.42294547 39.35371845 -8.63122998 39.47125022 -14.87109375 39.40234375 C-19.6266938 38.79082464 -23.13136878 36.73539581 -27 34 C-26.34 32.35 -25.68 30.7 -25 29 C-21 29 -21 29 -18.125 30.5 C-14.71133204 32.13856062 -12.73389999 32.41487778 -9 32 C-8.01 31.34 -7.02 30.68 -6 30 C-5.74969023 27.41619823 -5.74969023 27.41619823 -6 25 C-7.11375 24.443125 -8.2275 23.88625 -9.375 23.3125 C-10.09816406 22.94640625 -10.82132813 22.5803125 -11.56640625 22.203125 C-13.24764687 21.37194986 -14.94436788 20.57162694 -16.65234375 19.796875 C-23.43284066 16.65056513 -23.43284066 16.65056513 -26.125 13.5625 C-27.69800009 8.95585688 -27.5932176 6.2101639 -25.4375 1.8125 C-18.72153995 -5.93668468 -8.24612575 -5.49741717 0 0 Z " fill="#133E25" transform="translate(693,1114)"/>
<path d="M0 0 C2.82355195 1.42009686 4.34004799 3.34849432 5.98828125 6 C4.00828125 7.65 2.02828125 9.3 -0.01171875 11 C-0.60984375 10.360625 -1.20796875 9.72125 -1.82421875 9.0625 C-4.68024062 6.36967938 -6.49390486 6.03835658 -10.38671875 5.75 C-15.68951507 6.11571009 -17.85503925 7.68701246 -21.32421875 11.625 C-23.48718754 15.95093758 -23.71785196 19.25274299 -23.01171875 24 C-21.43342874 28.26138302 -19.87532829 30.63852937 -16.01171875 33 C-10.77712682 33.865931 -6.35509838 33.84290487 -1.82421875 31 C-1.22609375 30.34 -0.62796875 29.68 -0.01171875 29 C3.46727283 30.39159663 4.46880626 31.63251488 5.98828125 35 C-1.50630795 40.68438368 -7.6603987 42.25017648 -17.01171875 41 C-22.75025968 39.05299504 -26.54879364 35.4640594 -29.6328125 30.26953125 C-31.18078646 26.59912274 -31.41282855 23.96868935 -31.38671875 20 C-31.39445312 18.824375 -31.4021875 17.64875 -31.41015625 16.4375 C-30.68008805 10.13887241 -27.78588224 6.03151583 -23.01171875 2 C-15.35681559 -3.04303706 -8.46121908 -3.03960893 0 0 Z " fill="#1E593C" transform="translate(347.01171875,1112)"/>
<path d="M0 0 C10.56 0 21.12 0 32 0 C32 2.31 32 4.62 32 7 C28.04 7 24.08 7 20 7 C20 18.55 20 30.1 20 42 C17.69 42 15.38 42 13 42 C13 30.45 13 18.9 13 7 C8.71 7 4.42 7 0 7 C0 4.69 0 2.38 0 0 Z " fill="#0F4227" transform="translate(444,1111)"/>
<path d="M0 0 C-1.15173355 2.46800047 -2.04783565 4.04783565 -4 6 C-4.16687448 8.58354218 -4.16687448 8.58354218 -4 11 C-0.535 12.485 -0.535 12.485 3 14 C0.43144358 21.27757651 -3.73585728 26.5863152 -10 31 C-14.75149117 33.22410225 -18.84499434 33.33803316 -24 33 C-24.99 32.34 -25.98 31.68 -27 31 C-26.67 30.34 -26.34 29.68 -26 29 C-25.67 29.33 -25.34 29.66 -25 30 C-22.66702567 30.04092937 -20.33294775 30.04241723 -18 30 C-18 29.34 -18 28.68 -18 28 C-19.65 27.67 -21.3 27.34 -23 27 C-23 26.01 -23 25.02 -23 24 C-22.67 24.33 -22.34 24.66 -22 25 C-20.00041636 25.04080783 -17.99954746 25.04254356 -16 25 C-14.74338844 22.48677688 -14.78432284 20.49082323 -14.625 17.6875 C-14.04389148 11.12439202 -12.33400318 8.07643213 -7.4375 3.75 C-2.94329897 0 -2.94329897 0 0 0 Z " fill="#DCEDBB" transform="translate(568,509)"/>
<path d="M0 0 C0.66 0.33 1.32 0.66 2 1 C0 7 0 7 -1.125 9.875 C-2.56981948 15.03506958 -2.65973186 19.19441807 -0.8125 24.25 C1.57998662 27.8799797 3.70361646 30.49206386 8.1015625 31.46484375 C10.05956591 31.71737776 12.03029999 31.86646102 14 32 C14.33 32.99 14.66 33.98 15 35 C15.33 35 15.66 35 16 35 C16 34.34 16 33.68 16 33 C18.475 32.505 18.475 32.505 21 32 C20.67 33.65 20.34 35.3 20 37 C4.23868514 40.00306606 4.23868514 40.00306606 -0.75 36.9375 C-5.19799335 33.32228073 -8.17788906 29.45082549 -10 24 C-10.6338844 17.42242034 -11.1785998 10.47540664 -7 5 C-4.4375 3.25 -4.4375 3.25 -2 2 C-1.34 1.34 -0.68 0.68 0 0 Z " fill="#155033" transform="translate(373,1114)"/>
<path d="M0 0 C0.66 0.33 1.32 0.66 2 1 C1.01 2.485 1.01 2.485 0 4 C-0.22348143 6.4797728 -0.22348143 6.4797728 1 9 C3.18356495 10.91714913 5.52622465 12.48214828 8 14 C7.67 15.65 7.34 17.3 7 19 C5.58376784 19.05447047 4.16691809 19.09300508 2.75 19.125 C1.56664062 19.15980469 1.56664062 19.15980469 0.359375 19.1953125 C-2 19 -2 19 -4.015625 17.984375 C-7.56644727 16.22294348 -11.26540173 17.02009623 -15 18 C-17.54906626 19.87432505 -17.54906626 19.87432505 -19 22 C-20.93860432 20.38021124 -21.9031085 19.45827059 -22.43359375 16.94921875 C-22.44302598 11.48795831 -21.74332433 8.26323049 -18 4 C-15.75 2.625 -15.75 2.625 -14 2 C-13.01 4.31 -12.02 6.62 -11 9 C-9.35 9 -7.7 9 -6 9 C-5.7525 8.443125 -5.505 7.88625 -5.25 7.3125 C-3.78393985 4.60028873 -1.97010529 2.36412635 0 0 Z " fill="#DDEDBD" transform="translate(607,561)"/>
<path d="M0 0 C3.50625 -0.061875 7.0125 -0.12375 10.625 -0.1875 C11.71893066 -0.21481201 12.81286133 -0.24212402 13.93994141 -0.27026367 C19.37799376 -0.31665322 23.33637227 -0.14189206 28 3 C31.74820524 7.24796594 31.31529048 11.64006186 31 17 C30.01 17 29.02 17 28 17 C27.67 17.66 27.34 18.32 27 19 C23.9375 19.625 23.9375 19.625 21 20 C21.66 19.01 22.32 18.02 23 17 C23.33338596 13.45812169 23.33338596 13.45812169 23 10 C20.14206684 7.14206684 17.85334416 7.59200059 13.875 7.375 C12.59367188 7.30023437 11.31234375 7.22546875 9.9921875 7.1484375 C9.00476563 7.09945313 8.01734375 7.05046875 7 7 C7 11.29 7 15.58 7 20 C11.29 20 15.58 20 20 20 C20 20.33 20 20.66 20 21 C15.38 21 10.76 21 6 21 C5.97314905 18.52076199 5.95323453 16.0418116 5.9375 13.5625 C5.92493164 12.50192383 5.92493164 12.50192383 5.91210938 11.41992188 C5.90346412 9.61306441 5.94779989 7.80612397 6 6 C7.66342837 4.33657163 9.7825709 4.63951903 12.0625 4.4375 C13.44115234 4.31181641 13.44115234 4.31181641 14.84765625 4.18359375 C15.55792969 4.12300781 16.26820313 4.06242187 17 4 C17 3.34 17 2.68 17 2 C11.72 1.67 6.44 1.34 1 1 C1 13.87 1 26.74 1 40 C2.65 40 4.3 40 6 40 C5.98839844 39.00097656 5.97679687 38.00195312 5.96484375 36.97265625 C5.95582031 35.68230469 5.94679688 34.39195313 5.9375 33.0625 C5.92589844 31.77472656 5.91429687 30.48695312 5.90234375 29.16015625 C6 26 6 26 7 25 C14.36633663 24.52475248 14.36633663 24.52475248 17 26.5 C17.33 26.995 17.66 27.49 18 28 C17.67 28.66 17.34 29.32 17 30 C16.67 29.01 16.34 28.02 16 27 C13.03 27 10.06 27 7 27 C7 31.95 7 36.9 7 42 C4.69 42 2.38 42 0 42 C0 28.14 0 14.28 0 0 Z " fill="#092813" transform="translate(596,1111)"/>
<path d="M0 0 C2.82355195 1.42009686 4.34004799 3.34849432 5.98828125 6 C4.00828125 7.65 2.02828125 9.3 -0.01171875 11 C-0.60984375 10.360625 -1.20796875 9.72125 -1.82421875 9.0625 C-4.68024062 6.36967938 -6.49390486 6.03835658 -10.38671875 5.75 C-14.25856084 6.01702359 -15.88137538 6.82615044 -19.01171875 9 C-20.00171875 9.33 -20.99171875 9.66 -22.01171875 10 C-23.44400165 12.18009111 -23.44400165 12.18009111 -24.63671875 14.8125 C-25.06210937 15.68519531 -25.4875 16.55789063 -25.92578125 17.45703125 C-26.86601297 19.6587969 -27.51514489 21.66760764 -28.01171875 24 C-28.34505208 25.33333333 -28.67838542 26.66666667 -29.01171875 28 C-31.02806853 21.95095066 -31.22883028 13.76311013 -29.24609375 7.6328125 C-22.74732158 -2.66453778 -10.47525185 -3.7631302 0 0 Z " fill="#185839" transform="translate(347.01171875,1112)"/>
<path d="M0 0 C2.31 0 4.62 0 7 0 C7 13.86 7 27.72 7 42 C4.69 42 2.38 42 0 42 C0 28.14 0 14.28 0 0 Z " fill="#0D4226" transform="translate(644,1111)"/>
<path d="M0 0 C1.18295033 3.03557999 2.34335269 6.07931093 3.5 9.125 C3.83386719 9.9809375 4.16773438 10.836875 4.51171875 11.71875 C6.22662913 16.26851223 7.56308993 20.05560759 7 25 C5.9375 26.9375 5.9375 26.9375 4 28 C-1.91853211 27.78862385 -1.91853211 27.78862385 -4.64453125 25.80078125 C-8.63108748 20.50452066 -8.68984037 10.43851012 -8 4 C-5.38749338 0.26784768 -4.66777264 0 0 0 Z " fill="#589C60" transform="translate(513,525)"/>
<path d="M0 0 C2.4375 1.625 2.4375 1.625 3.4375 4.625 C2.5 6.8125 2.5 6.8125 1.4375 8.625 C0.674375 8.315625 -0.08875 8.00625 -0.875 7.6875 C-4.74620069 6.15702531 -7.60509006 5.50867 -11.75 5.5625 C-12.65105469 5.57152344 -13.55210937 5.58054687 -14.48046875 5.58984375 C-15.51107422 5.60724609 -15.51107422 5.60724609 -16.5625 5.625 C-17.42224801 7.91794488 -17.42224801 7.91794488 -17.5625 10.625 C-15.08712743 13.95723231 -12.45325454 15.32808182 -8.5625 16.625 C-9.5525 17.285 -10.5425 17.945 -11.5625 18.625 C-10.2425 19.615 -8.9225 20.605 -7.5625 21.625 C-13.14850091 21.20604993 -17.18751555 18.9767184 -21.5625 15.625 C-23.5454558 11.65908839 -23.24956593 6.92552377 -22.5625 2.625 C-15.89215884 -3.60065175 -8.10502481 -3.12825519 0 0 Z " fill="#175A3A" transform="translate(690.5625,1112.375)"/>
<path d="M0 0 C8.25 0 16.5 0 25 0 C25 1.32 25 2.64 25 4 C24.40985107 4.02505615 23.81970215 4.0501123 23.21166992 4.07592773 C20.53673186 4.19200052 17.8621362 4.31467572 15.1875 4.4375 C13.7943457 4.49647461 13.7943457 4.49647461 12.37304688 4.55664062 C11.0340332 4.61948242 11.0340332 4.61948242 9.66796875 4.68359375 C8.43469849 4.73858032 8.43469849 4.73858032 7.17651367 4.79467773 C4.82094822 4.93427772 4.82094822 4.93427772 2 6 C2 15.9 2 25.8 2 36 C2.495 35.505 2.495 35.505 3 35 C4.63472882 34.91299658 6.27314055 34.89298937 7.91015625 34.90234375 C8.89951172 34.90556641 9.88886719 34.90878906 10.90820312 34.91210938 C11.94912109 34.92048828 12.99003906 34.92886719 14.0625 34.9375 C15.62967773 34.94426758 15.62967773 34.94426758 17.22851562 34.95117188 C19.8190666 34.96300087 22.40950559 34.97948311 25 35 C25 36.32 25 37.64 25 39 C16.75 39 8.5 39 0 39 C0 26.13 0 13.26 0 0 Z " fill="#1B5E3E" transform="translate(277,1112)"/>
<path d="M0 0 C3.82568509 3.44311658 5.66541643 6.43226564 6.3359375 11.578125 C6.43142404 18.1094045 5.82259111 23.54671905 2 29 C-3.17239697 33.94343775 -7.48164031 36.14727482 -14.6875 36.0625 C-15.68136719 36.05347656 -16.67523438 36.04445313 -17.69921875 36.03515625 C-18.83810547 36.01775391 -18.83810547 36.01775391 -20 36 C-20 35.67 -20 35.34 -20 35 C-15.71 34.34 -11.42 33.68 -7 33 C-6.67 31.68 -6.34 30.36 -6 29 C-7.65 29.33 -9.3 29.66 -11 30 C-10.67 30.99 -10.34 31.98 -10 33 C-12.475 33.495 -12.475 33.495 -15 34 C-14.67 33.34 -14.34 32.68 -14 32 C-15.32 31.34 -16.64 30.68 -18 30 C-17.00419922 29.77957031 -17.00419922 29.77957031 -15.98828125 29.5546875 C-9.6785679 27.9519282 -6.55753406 26.50843984 -3 21 C-1.99503148 17.98509443 -1.89664697 15.95818308 -1.9375 12.8125 C-1.94652344 11.91144531 -1.95554687 11.01039062 -1.96484375 10.08203125 C-1.97644531 9.39496094 -1.98804688 8.70789062 -2 8 C-1.01 8.99 -0.02 9.98 1 11 C2.0257259 6.58937864 2.03684712 4.07369424 0 0 Z " fill="#12452B" transform="translate(400,1117)"/>
<path d="M0 0 C2.31 0 4.62 0 7 0 C7.02187378 1.22517334 7.02187378 1.22517334 7.04418945 2.47509766 C7.11886923 6.1921976 7.21546612 9.90841919 7.3125 13.625 C7.33505859 14.91019531 7.35761719 16.19539063 7.38085938 17.51953125 C7.41630859 18.76347656 7.45175781 20.00742188 7.48828125 21.2890625 C7.51446533 22.43068848 7.54064941 23.57231445 7.56762695 24.74853516 C8.04764909 28.35832329 9.20936759 30.85232254 11 34 C7.125 32.125 7.125 32.125 6 31 C5.34 31.66 4.68 32.32 4 33 C3.67 32.34 3.34 31.68 3 31 C2.34 31.33 1.68 31.66 1 32 C-0.13917218 28.58248347 -0.11338481 25.96512063 -0.09765625 22.36328125 C-0.09443359 21.06455078 -0.09121094 19.76582031 -0.08789062 18.42773438 C-0.07953531 17.05598892 -0.07107037 15.68424413 -0.0625 14.3125 C-0.05748335 12.92903805 -0.05292073 11.54557437 -0.04882812 10.16210938 C-0.03702529 6.77469605 -0.02056019 3.38736967 0 0 Z " fill="#104228" transform="translate(543,1111)"/>
<path d="M0 0 C2.27024968 -0.08097324 4.54132075 -0.13917704 6.8125 -0.1875 C8.07707031 -0.22230469 9.34164062 -0.25710938 10.64453125 -0.29296875 C14 0 14 0 15.921875 1.29296875 C17.76587962 4.21264273 17.41673913 6.66608693 17 10 C14.61763301 12.53307633 13.25565911 12.97684247 9.765625 13.29296875 C8.60546875 13.25816406 7.4453125 13.22335937 6.25 13.1875 C4.1875 13.125625 2.125 13.06375 0 13 C0 8.71 0 4.42 0 0 Z " fill="#FBFCFB" transform="translate(603,1118)"/>
<path d="M0 0 C3.08726302 4.63089453 3.85033862 9.59546437 5 15 C5.42539062 16.93166016 5.42539062 16.93166016 5.859375 18.90234375 C9.31470076 36.66199661 8.27031312 54.99575986 8 73 C7.67 73 7.34 73 7 73 C6.97494385 72.03586182 6.9498877 71.07172363 6.92407227 70.07836914 C6.83014694 66.51312158 6.72989061 62.94807567 6.62768555 59.38305664 C6.58428015 57.83785711 6.54260929 56.29260786 6.50268555 54.74731445 C6.44511801 52.53060904 6.38138576 50.3141552 6.31640625 48.09765625 C6.29969376 47.4028566 6.28298126 46.70805695 6.26576233 45.99220276 C6.43497144 42.71237971 6.43497144 42.71237971 5 40 C4.34 44.29 3.68 48.58 3 53 C2.34 53 1.68 53 1 53 C1.00523682 51.71424072 1.01047363 50.42848145 1.01586914 49.10375977 C1.03406656 44.30103256 1.04548559 39.49830837 1.05493164 34.69555664 C1.0599383 32.62296027 1.06674559 30.55036739 1.07543945 28.4777832 C1.08766646 25.48648208 1.09326513 22.49522794 1.09765625 19.50390625 C1.10281754 18.58791153 1.10797882 17.67191681 1.11329651 16.72816467 C1.11378183 11.07228728 0.7210104 5.61090796 0 0 Z " fill="#6FAC69" transform="translate(559,327)"/>
<path d="M0 0 C0.66 0 1.32 0 2 0 C2 3.3 2 6.6 2 10 C8.27 10 14.54 10 21 10 C21 12.31 21 14.62 21 17 C14.73 17 8.46 17 2 17 C2 20.63 2 24.26 2 28 C1.67 28 1.34 28 1 28 C-2.82576266 19.39203401 -1.12655761 9.09292932 0 0 Z " fill="#124D2F" transform="translate(279,1118)"/>
<path d="M0 0 C2 1 2 1 3.125 4.0625 C4.87013265 10.97266235 4.49520559 16.53919485 1.4140625 22.9453125 C-0.96169982 26.39738703 -4.18977766 28.35880034 -8 30 C-8.66 30 -9.32 30 -10 30 C-10.33 28.68 -10.66 27.36 -11 26 C-10.236875 25.484375 -9.47375 24.96875 -8.6875 24.4375 C-5.54914208 21.59108235 -3.89386205 19.09868451 -3 15 C-2.92295621 11.86958903 -2.99711763 8.79731885 -3.1875 5.671875 C-3 3 -3 3 -1.5 1.140625 C-1.005 0.76421875 -0.51 0.3878125 0 0 Z " fill="#165939" transform="translate(525,1120)"/>
<path d="M0 0 C0.33 0.66 0.66 1.32 1 2 C0.33784543 3.33557985 -0.32946301 4.66860886 -1 6 C-1.78778935 11.62706678 -1.20098795 16.19851807 2 21 C5.34791776 24.47191472 9.42647508 25.0090696 14 26 C14 26.33 14 26.66 14 27 C9.71 26.67 5.42 26.34 1 26 C1 26.66 1 27.32 1 28 C1.66 28.66 2.32 29.32 3 30 C-1.28364261 29.52403971 -3.26023924 27.16126242 -6 24 C-8.80273058 19.3621482 -9.33999819 16.01326941 -9.1875 10.625 C-9.16042969 9.37976562 -9.13335937 8.13453125 -9.10546875 6.8515625 C-9.07066406 5.91054687 -9.03585937 4.96953125 -9 4 C-8.34 3.67 -7.68 3.34 -7 3 C-7 4.98 -7 6.96 -7 9 C-6.34 9.33 -5.68 9.66 -5 10 C-3.35 6.7 -1.7 3.4 0 0 Z " fill="#0D3921" transform="translate(325,1121)"/>
<path d="M0 0 C2.29104056 0.91641622 3.75057101 1.69118315 5.3125 3.625 C6.3492404 7.20646682 5.97740399 10.46306327 5 14 C2.77116451 17.53539422 0.84657662 19.4491795 -3 21 C-11.27613064 22.13781825 -17.20963602 20.80126746 -24 16 C-23.34 14.35 -22.68 12.7 -22 11 C-18 11 -18 11 -15.125 12.5 C-11.66279022 14.16186069 -9.78655313 14.48338976 -6 14 C-3.18219466 12.61114752 -3.18219466 12.61114752 -1 11 C-1.5625 12.875 -1.5625 12.875 -3 15 C-6.625 16.25 -6.625 16.25 -10 17 C-10 17.66 -10 18.32 -10 19 C-4.7141451 19.50341475 -2.13445849 18.26910671 2 15 C3.59220976 11.81558048 3.3976617 8.4662845 3 5 C1.6490712 2.0745356 1.6490712 2.0745356 0 0 Z " fill="#0E3820" transform="translate(690,1132)"/>
<path d="M0 0 C12.24354244 -0.59778598 12.24354244 -0.59778598 18 3 C19.9375 6.1875 19.9375 6.1875 21 9 C19.625 11 19.625 11 18 13 C16 13 16 13 14.0625 11.125 C13.381875 10.42375 12.70125 9.7225 12 9 C8.59568053 6.73045369 6.83475798 6.63450051 2.8125 6.375 C1.72582031 6.30023437 0.63914062 6.22546875 -0.48046875 6.1484375 C-1.31191406 6.09945313 -2.14335937 6.05046875 -3 6 C-3 5.34 -3 4.68 -3 4 C-2.34 4 -1.68 4 -1 4 C-0.67 2.68 -0.34 1.36 0 0 Z " fill="#12452A" transform="translate(502,1110)"/>
<path d="M0 0 C0.33 0.99 0.66 1.98 1 3 C-3.75 7 -3.75 7 -6 7 C-5.69707031 7.47945068 -5.39414062 7.95890137 -5.08203125 8.45288086 C-3.71903518 10.61296752 -2.35947686 12.77519693 -1 14.9375 C-0.28457031 16.06961914 -0.28457031 16.06961914 0.4453125 17.22460938 C0.89648438 17.94326172 1.34765625 18.66191406 1.8125 19.40234375 C2.23144531 20.06741943 2.65039062 20.73249512 3.08203125 21.41772461 C4 23 4 23 4 24 C0.81250449 24.6374991 -1.84267512 24.86248875 -5 24 C-7.90355965 20.76209105 -11 16.49032639 -11 12 C-9.68 12 -8.36 12 -7 12 C-7.66 10.02 -8.32 8.04 -9 6 C-7.68 4.68 -6.36 3.36 -5 2 C-4.34 2.66 -3.68 3.32 -3 4 C-2.01 2.68 -1.02 1.36 0 0 Z " fill="#103B23" transform="translate(625,1129)"/>
<path d="M0 0 C0 13.86 0 27.72 0 42 C-2.31 42 -4.62 42 -7 42 C-7.04939662 38.04903022 -7.08571755 34.0981797 -7.10986328 30.14697266 C-7.12488107 28.1408864 -7.15028981 26.13488676 -7.17578125 24.12890625 C-7.18222656 22.87207031 -7.18867187 21.61523438 -7.1953125 20.3203125 C-7.20578613 19.15773926 -7.21625977 17.99516602 -7.22705078 16.79736328 C-7 14 -7 14 -5 12 C-5 21.24 -5 30.48 -5 40 C-3.68 40 -2.36 40 -1 40 C-1 27.13 -1 14.26 -1 1 C-6.80857772 2.63879917 -6.80857772 2.63879917 -9.875 6.625 C-10.926875 8.295625 -10.926875 8.295625 -12 10 C-12 6.79295751 -11.63489514 5.91590026 -9.9375 3.3125 C-9.55464844 2.68988281 -9.17179688 2.06726562 -8.77734375 1.42578125 C-7 0 -7 0 0 0 Z " fill="#02270F" transform="translate(750,1111)"/>
<path d="M0 0 C2.31 0 4.62 0 7 0 C9.4375 2.5 9.4375 2.5 11 5 C10.67 5.66 10.34 6.32 10 7 C9.443125 6.195625 8.88625 5.39125 8.3125 4.5625 C5.99474733 1.4819087 5.99474733 1.4819087 1 1 C1 13.87 1 26.74 1 40 C2.32 40 3.64 40 5 40 C5 31.42 5 22.84 5 14 C5.66 14 6.32 14 7 14 C7 23.24 7 32.48 7 42 C4.69 42 2.38 42 0 42 C0 28.14 0 14.28 0 0 Z " fill="#04240F" transform="translate(711,1111)"/>
<path d="M0 0 C6.15206004 -0.33556691 11.42410668 0.19562144 17 3 C19.5625 5.6875 19.5625 5.6875 21 8 C19.02 9.65 17.04 11.3 15 13 C14.401875 12.360625 13.80375 11.72125 13.1875 11.0625 C9.86558434 7.93040809 7.19136228 7.88063166 2.8125 7.9375 C1.91144531 7.94652344 1.01039063 7.95554687 0.08203125 7.96484375 C-0.94857422 7.98224609 -0.94857422 7.98224609 -2 8 C0.5654594 5.4345406 2.47686668 5.45953913 6 5 C6 4.34 6 3.68 6 3 C3.69 2.67 1.38 2.34 -1 2 C-0.67 1.34 -0.34 0.68 0 0 Z " fill="#133923" transform="translate(332,1110)"/>
<path d="M0 0 C5.61 0 11.22 0 17 0 C17 2.31 17 4.62 17 7 C11.39 7 5.78 7 0 7 C0 4.69 0 2.38 0 0 Z " fill="#1B4C33" transform="translate(418,1129)"/>
<path d="M0 0 C1.65 0 3.3 0 5 0 C3.68 0.33 2.36 0.66 1 1 C1.33 5.62 1.66 10.24 2 15 C2.66 14.34 3.32 13.68 4 13 C4 21.58 4 30.16 4 39 C2.68 39 1.36 39 0 39 C0 26.13 0 13.26 0 0 Z " fill="#195D3D" transform="translate(712,1112)"/>
<path d="M0 0 C0.33 0 0.66 0 1 0 C1 3.63 1 7.26 1 11 C8.26 11 15.52 11 23 11 C23 13.31 23 15.62 23 18 C14.09 18 5.18 18 -4 18 C-4 17.34 -4 16.68 -4 16 C4.25 16 12.5 16 21 16 C21 14.68 21 13.36 21 12 C17.37435813 12.10954408 13.74978569 12.2402496 10.125 12.375 C8.57619141 12.42140625 8.57619141 12.42140625 6.99609375 12.46875 C5.51689453 12.52675781 5.51689453 12.52675781 4.0078125 12.5859375 C3.09660645 12.6173584 2.18540039 12.6487793 1.24658203 12.68115234 C-1.19931186 12.79882511 -1.19931186 12.79882511 -3 15 C-3 11.7 -3 8.4 -3 5 C-2.34 5.33 -1.68 5.66 -1 6 C-0.67 4.02 -0.34 2.04 0 0 Z " fill="#032C14" transform="translate(281,1135)"/>
<path d="M0 0 C0.33 0 0.66 0 1 0 C1 12.87 1 25.74 1 39 C-0.32 39 -1.64 39 -3 39 C-3 29.76 -3 20.52 -3 11 C-2.34 12.32 -1.68 13.64 -1 15 C-0.67 10.05 -0.34 5.1 0 0 Z " fill="#185E3D" transform="translate(748,1112)"/>
<path d="M0 0 C2.60075051 2.60075051 3.35587674 5.11789748 4.6796875 8.5546875 C4.93372345 9.21147491 5.1877594 9.86826233 5.44949341 10.54495239 C5.9882275 11.94110399 6.52436219 13.33826095 7.05810547 14.73632812 C7.85950034 16.8344211 8.66921359 18.92914042 9.48046875 21.0234375 C16.66545705 39.64907409 16.66545705 39.64907409 18 45 C17.67 45.66 17.34 46.32 17 47 C11.07808016 35.967794 6.65801201 24.96493303 3 13 C2.65839844 11.92621094 2.31679688 10.85242188 1.96484375 9.74609375 C0 3.46773256 0 3.46773256 0 0 Z " fill="#549557" transform="translate(514,400)"/>
<path d="M0 0 C1.9375 0.375 1.9375 0.375 4 1 C5.60553944 4.21107887 5.47469056 7.51670728 5 11 C3.0356839 14.47532849 1.62568386 15.71322823 -2 17.375 C-4.87616173 17.97420036 -6.30131093 18.03795734 -9 17 C-9 16.34 -9 15.68 -9 15 C-9.99 14.67 -10.98 14.34 -12 14 C-8.7 13.34 -5.4 12.68 -2 12 C-1.1031286 9.3093858 -0.72140874 7.11102904 -0.4375 4.3125 C-0.35371094 3.50425781 -0.26992188 2.69601562 -0.18359375 1.86328125 C-0.12300781 1.24839844 -0.06242188 0.63351562 0 0 Z " fill="#165D3C" transform="translate(689,1134)"/>
<path d="M0 0 C0.804375 0.66 1.60875 1.32 2.4375 2 C6.43438034 4.72209596 10.33271604 4.37338272 15 4 C15.33 4.99 15.66 5.98 16 7 C16.33 7 16.66 7 17 7 C17 6.34 17 5.68 17 5 C18.65 4.67 20.3 4.34 22 4 C21.67 5.65 21.34 7.3 21 9 C18.39761763 9.41626139 15.79534235 9.80854441 13.1875 10.1875 C12.44951172 10.30802734 11.71152344 10.42855469 10.95117188 10.55273438 C5.44738212 11.32475918 5.44738212 11.32475918 3.17578125 9.67578125 C2.78777344 9.12277344 2.39976562 8.56976562 2 8 C1.01 7.34 0.02 6.68 -1 6 C-0.67 4.02 -0.34 2.04 0 0 Z " fill="#195B3B" transform="translate(372,1142)"/>
<path d="M0 0 C2.5 1.6875 2.5 1.6875 5 4 C5.3125 6.75 5.3125 6.75 5 9 C4.34 9 3.68 9 3 9 C3.04640625 9.7734375 3.0928125 10.546875 3.140625 11.34375 C3.41021037 19.1232135 2.73424049 24.76400109 -2.51171875 30.71484375 C-4 32 -4 32 -6 32 C-5.67 33.32 -5.34 34.64 -5 36 C-4.21625 35.484375 -3.4325 34.96875 -2.625 34.4375 C-1.75875 33.963125 -0.8925 33.48875 0 33 C0.66 33.33 1.32 33.66 2 34 C-0.8125 36.0625 -0.8125 36.0625 -4 38 C-7 37 -7 37 -9 35 C-9 34.67 -9 34.34 -9 34 C-10.98 34 -12.96 34 -15 34 C-15 33.67 -15 33.34 -15 33 C-14.40832031 32.84144531 -13.81664062 32.68289063 -13.20703125 32.51953125 C-7.90474814 30.95393053 -4.61008638 29.39979278 -1 25 C0.29060033 22.41879934 0.13272333 20.50580171 0.125 17.625 C0.12757813 16.66851563 0.13015625 15.71203125 0.1328125 14.7265625 C0.10015268 12.05793883 0.10015268 12.05793883 -0.59765625 9.7890625 C-0.73042969 9.19867187 -0.86320313 8.60828125 -1 8 C0.4375 5.75 0.4375 5.75 2 4 C1.34 2.68 0.68 1.36 0 0 Z " fill="#0B3119" transform="translate(520,1114)"/>
<path d="M0 0 C1.62463842 -0.05395478 3.24978541 -0.09277195 4.875 -0.125 C5.77992188 -0.14820313 6.68484375 -0.17140625 7.6171875 -0.1953125 C10 0 10 0 12 2 C11.67028521 5.29714793 11.3773161 6.6226839 9 9 C5.5 9.3125 5.5 9.3125 2 9 C-0.29013653 5.5647952 -0.17842973 4.014669 0 0 Z " fill="#4F965A" transform="translate(475,514)"/>
<path d="M0 0 C2.33829125 1.02300242 3.55893291 1.75132219 5 3.875 C4.92109315 7.03127383 4.45046288 8.40844916 2.25 10.6875 C-0.37152557 12.07108294 -2.07674878 12.11860427 -5 11.875 C-5.08131463 10.43844146 -5.13933559 9.0005517 -5.1875 7.5625 C-5.22230469 6.76199219 -5.25710938 5.96148438 -5.29296875 5.13671875 C-5 2.875 -5 2.875 -3.61328125 1.07421875 C-2 -0.125 -2 -0.125 0 0 Z " fill="#4F9759" transform="translate(500,537.125)"/>
<path d="M0 0 C0.33 0 0.66 0 1 0 C1.12375 0.969375 1.2475 1.93875 1.375 2.9375 C1.684375 4.4534375 1.684375 4.4534375 2 6 C2.66 6.33 3.32 6.66 4 7 C4.0271045 10.04172719 4.04688964 13.08320997 4.0625 16.125 C4.07087891 16.9809375 4.07925781 17.836875 4.08789062 18.71875 C4.1052505 23.23231758 4.11884238 27.59499793 3 32 C2.01 32.495 2.01 32.495 1 33 C2.32 33 3.64 33 5 33 C5 33.66 5 34.32 5 35 C3.02 35 1.04 35 -1 35 C-0.67 23.45 -0.34 11.9 0 0 Z " fill="#0D4E2E" transform="translate(458,1118)"/>
<path d="M0 0 C2.4375 1.625 2.4375 1.625 3.4375 4.625 C2.5 6.8125 2.5 6.8125 1.4375 8.625 C0.73238281 8.31820313 0.02726563 8.01140625 -0.69921875 7.6953125 C-3.60515573 6.60905502 -6.32004152 6.0152942 -9.375 5.5 C-10.35082031 5.33242187 -11.32664062 5.16484375 -12.33203125 4.9921875 C-13.06808594 4.87101562 -13.80414062 4.74984375 -14.5625 4.625 C-14.5625 4.295 -14.5625 3.965 -14.5625 3.625 C-13.60537109 3.55152344 -13.60537109 3.55152344 -12.62890625 3.4765625 C-11.80261719 3.40179687 -10.97632813 3.32703125 -10.125 3.25 C-9.30128906 3.18039062 -8.47757813 3.11078125 -7.62890625 3.0390625 C-6.60603516 2.83410156 -6.60603516 2.83410156 -5.5625 2.625 C-5.2325 1.965 -4.9025 1.305 -4.5625 0.625 C-6.31241334 0.59784617 -8.06244945 0.57853449 -9.8125 0.5625 C-10.78703125 0.55089844 -11.7615625 0.53929687 -12.765625 0.52734375 C-15.22008678 0.61304423 -17.22418914 0.91793934 -19.5625 1.625 C-14.23869551 -4.20583349 -6.79085503 -2.62103177 0 0 Z " fill="#18402B" transform="translate(690.5625,1112.375)"/>
<path d="M0 0 C3.87467873 1.25665256 6.10609704 2.31187319 8 6 C8.49169022 9.31890896 8.68598469 11.73530394 7.05078125 14.75 C5.01367576 17.42329932 3.40684512 18.87342596 0.1875 19.875 C-0.534375 19.91625 -1.25625 19.9575 -2 20 C-1.65221564 16.78299472 -1.49927596 15.40849852 1.0625 13.3125 C1.701875 12.879375 2.34125 12.44625 3 12 C3.22609337 9.87635519 3.22609337 9.87635519 1.5 8.375 C0.7575 7.694375 0.7575 7.694375 0 7 C1.65 6.67 3.3 6.34 5 6 C3.35 4.02 1.7 2.04 0 0 Z " fill="#469153" transform="translate(551,580)"/>
<path d="M0 0 C0.33 0.66 0.66 1.32 1 2 C0.67 2.66 0.34 3.32 0 4 C-0.37381854 9.60727817 -0.18490827 13.16772538 3 18 C5.47661498 20.24850483 5.47661498 20.24850483 8 22 C8.66 22.66 9.32 23.32 10 24 C6.31245243 23.50168276 4.39509338 22.89932357 2 20 C1.67 21.65 1.34 23.3 1 25 C3.31 25.99 5.62 26.98 8 28 C6.375 28.75 6.375 28.75 4 29 C-0.28289497 26.68009856 -3.36333215 24.10148332 -6 20 C-6.75 16.6875 -6.75 16.6875 -7 14 C-5.45428722 16.31856917 -4.20381448 18.50638429 -3 21 C-2.08797469 17.69390824 -1.97728521 14.83792338 -2.0703125 11.40625 C-2.09738281 9.96765625 -2.09738281 9.96765625 -2.125 8.5 C-2.14820313 7.5409375 -2.17140625 6.581875 -2.1953125 5.59375 C-2 3 -2 3 0 0 Z " fill="#0F311C" transform="translate(371,1123)"/>
<path d="M0 0 C0.33 0.99 0.66 1.98 1 3 C-1.07563391 6.50360761 -3.90474696 9.33708369 -7.375 11.4375 C-10.98977673 12.21209501 -14.30497057 12.12525523 -18 12 C-18 11.67 -18 11.34 -18 11 C-14.04 10.01 -10.08 9.02 -6 8 C-6 6.68 -6 5.36 -6 4 C-6.928125 5.051875 -6.928125 5.051875 -7.875 6.125 C-12.04830943 8.62898566 -14.30298453 7.81855086 -18.890625 6.7734375 C-21 6 -21 6 -22 4 C-20.87851562 4.01740234 -20.87851562 4.01740234 -19.734375 4.03515625 C-18.74953125 4.04417969 -17.7646875 4.05320312 -16.75 4.0625 C-15.77546875 4.07410156 -14.8009375 4.08570313 -13.796875 4.09765625 C-11.34241322 4.01195577 -9.33831086 3.70706066 -7 3 C-7 2.34 -7 1.68 -7 1 C-5.33388095 0.957279 -3.66617115 0.95936168 -2 1 C-1.67 1.33 -1.34 1.66 -1 2 C-0.67 1.34 -0.34 0.68 0 0 Z " fill="#0F3720" transform="translate(576,1141)"/>
<path d="M0 0 C3.47899158 1.39159663 4.48052501 2.63251488 6 6 C-1.07439515 11.15617521 -6.25487847 12.89778814 -15 12 C-13.68 11.34 -12.36 10.68 -11 10 C-11 9.34 -11 8.68 -11 8 C-8.36 8.33 -5.72 8.66 -3 9 C-2.34 7.35 -1.68 5.7 -1 4 C-1.66 3.67 -2.32 3.34 -3 3 C-2.01 2.01 -1.02 1.02 0 0 Z " fill="#0F4328" transform="translate(347,1141)"/>
<path d="M0 0 C5.53201373 8.29802059 5.58528673 19.33289069 6 29 C5.67 27.68 5.34 26.36 5 25 C4.34 25 3.68 25 3 25 C3 30.94 3 36.88 3 43 C2.67 43 2.34 43 2 43 C1.97494385 42.01717041 1.9498877 41.03434082 1.92407227 40.02172852 C1.82911881 36.33705031 1.72912162 32.65252255 1.62768555 28.96801758 C1.58466614 27.38048855 1.54297163 25.792923 1.50268555 24.20532227 C1.19776183 12.07231807 1.19776183 12.07231807 0 0 Z " fill="#8CC57C" transform="translate(559,327)"/>
<path d="M0 0 C3.05619558 3.05619558 2.94946099 5.40363973 3.3125 9.6875 C3.21013648 14.67539523 1.83177385 18.88532308 -1 23 C-3.90206887 25.46618501 -7.07535152 28 -11 28 C-11.33 26.68 -11.66 25.36 -12 24 C-7.25 20 -7.25 20 -5 20 C-5 20.99 -5 21.98 -5 23 C-2.47411298 20.63707344 -1.11179163 19.33537489 0 16 C0.07051114 13.26134713 0.09357765 10.54972412 0.0625 7.8125 C0.05798828 7.06291016 0.05347656 6.31332031 0.04882812 5.54101562 C0.03706354 3.69397617 0.01912865 1.84697787 0 0 Z " fill="#133D26" transform="translate(526,1122)"/>
<path d="M0 0 C0 0.66 0 1.32 0 2 C-4.455 2.495 -4.455 2.495 -9 3 C-9 3.66 -9 4.32 -9 5 C-10.5 6.625 -10.5 6.625 -12 8 C-11.44828125 7.67257812 -10.8965625 7.34515625 -10.328125 7.0078125 C-7.61219077 5.83212285 -5.69448241 5.79751362 -2.75 5.875 C-1.85796875 5.89304687 -0.9659375 5.91109375 -0.046875 5.9296875 C0.96632813 5.96449219 0.96632813 5.96449219 2 6 C2 6.33 2 6.66 2 7 C1.12988281 7.03867188 1.12988281 7.03867188 0.2421875 7.078125 C-5.27142342 7.47845319 -8.53140938 8.51231951 -13 12 C-13.99 12.495 -13.99 12.495 -15 13 C-14.67 10.69 -14.34 8.38 -14 6 C-15.32 6.99 -16.64 7.98 -18 9 C-18.66 8.67 -19.32 8.34 -20 8 C-13.32781841 1.88543589 -9.11774189 -0.309076 0 0 Z " fill="#0C331C" transform="translate(387,1110)"/>
<path d="M0 0 C0.33 0.66 0.66 1.32 1 2 C0.34 3.98 -0.32 5.96 -1 8 C11.87 8.495 11.87 8.495 25 9 C25 9.66 25 10.32 25 11 C15.43 11 5.86 11 -4 11 C-1 1 -1 1 0 0 Z " fill="#043518" transform="translate(741,1049)"/>
<path d="M0 0 C0.99 1.32 1.98 2.64 3 4 C3.66 3.67 4.32 3.34 5 3 C5.66 3.78375 6.32 4.5675 7 5.375 C10.73720709 8.6450562 13.18397855 9.10209769 18 10 C17.360625 10.309375 16.72125 10.61875 16.0625 10.9375 C14.06389179 11.8345163 14.06389179 11.8345163 13 13 C9.51262316 13 6.97638326 12.7895969 4.203125 10.546875 C1.62831269 7.72684247 0.11584785 5.90747481 -0.375 2.0625 C-0.25125 1.381875 -0.1275 0.70125 0 0 Z " fill="#175B3C" transform="translate(545,1138)"/>
<path d="M0 0 C2.25 0.125 2.25 0.125 5 1 C7.99680059 4.40177364 8.95622256 6.32144972 9.25 10.875 C9.1675 11.90625 9.085 12.9375 9 14 C7.02 13.34 5.04 12.68 3 12 C3.0825 11.2575 3.165 10.515 3.25 9.75 C2.92894816 6.21842973 1.64734383 5.23369636 -1 3 C-0.34 2.67 0.32 2.34 1 2 C0.67 1.34 0.34 0.68 0 0 Z " fill="#165A3B" transform="translate(617,1113)"/>
<path d="M0 0 C2 2 2 2 3 7 C-6.57 7 -16.14 7 -26 7 C-26.33 5.35 -26.66 3.7 -27 2 C-26.34 2.66 -25.68 3.32 -25 4 C-22.28384136 4.37207354 -22.28384136 4.37207354 -19.1171875 4.4140625 C-17.95058594 4.45273438 -16.78398438 4.49140625 -15.58203125 4.53125 C-13.74705078 4.57765625 -13.74705078 4.57765625 -11.875 4.625 C-10.64394531 4.66367188 -9.41289063 4.70234375 -8.14453125 4.7421875 C-5.09650624 4.8366999 -2.04849138 4.92225494 1 5 C0.67 3.35 0.34 1.7 0 0 Z " fill="#023517" transform="translate(860,1053)"/>
<path d="M0 0 C2.31 0.33 4.62 0.66 7 1 C6.38348417 2.6490302 5.75652258 4.29415841 5.125 5.9375 C4.77695312 6.85402344 4.42890625 7.77054688 4.0703125 8.71484375 C3 11 3 11 1 12 C1 14.64 1 17.28 1 20 C-1.43044139 16.35433792 -1.26310692 13.64363257 -1.1875 9.4375 C-1.1865332 8.40979492 -1.1865332 8.40979492 -1.18554688 7.36132812 C-1.14067963 2.28135927 -1.14067963 2.28135927 0 0 Z " fill="#185A3A" transform="translate(318,1120)"/>
<path d="M0 0 C1.125 3.75 1.125 3.75 0 6 C-9.9 6 -19.8 6 -30 6 C-29.34 4.68 -28.68 3.36 -28 2 C-27.67 2.66 -27.34 3.32 -27 4 C-18.42 3.67 -9.84 3.34 -1 3 C-0.67 2.01 -0.34 1.02 0 0 Z " fill="#033618" transform="translate(320,1054)"/>
<path d="M0 0 C6.93 0 13.86 0 21 0 C21 0.99 21 1.98 21 3 C13.74 3 6.48 3 -1 3 C-0.67 2.01 -0.34 1.02 0 0 Z " fill="#165939" transform="translate(280,1147)"/>
<path d="M0 0 C0.99 0.66 1.98 1.32 3 2 C3 2.66 3 3.32 3 4 C-6.9 4 -16.8 4 -27 4 C-27 3.01 -27 2.02 -27 1 C-13.635 1.495 -13.635 1.495 0 2 C0 1.34 0 0.68 0 0 Z " fill="#033719" transform="translate(718,1056)"/>
<path d="M0 0 C0.66 0 1.32 0 2 0 C2 1.98 2 3.96 2 6 C-5.26 6 -12.52 6 -20 6 C-20 9.3 -20 12.6 -20 16 C-20.33 16 -20.66 16 -21 16 C-21.02687279 14.18757948 -21.04633715 12.37504767 -21.0625 10.5625 C-21.07410156 9.55316406 -21.08570313 8.54382812 -21.09765625 7.50390625 C-21 5 -21 5 -20 4 C-18.5112814 3.91330568 -17.018555 3.89296506 -15.52734375 3.90234375 C-14.62822266 3.90556641 -13.72910156 3.90878906 -12.80273438 3.91210938 C-11.85720703 3.92048828 -10.91167969 3.92886719 -9.9375 3.9375 C-8.98810547 3.94201172 -8.03871094 3.94652344 -7.06054688 3.95117188 C-4.70696935 3.9629989 -2.35351523 3.97947975 0 4 C0 2.68 0 1.36 0 0 Z " fill="#0B361C" transform="translate(302,1112)"/>
<path d="M0 0 C9.64097477 3.40269698 13.32101967 8.82679661 17.8125 17.5 C18.204375 18.325 18.59625 19.15 19 20 C20.65 20 22.3 20 24 20 C24 20.66 24 21.32 24 22 C22.25 22.75 22.25 22.75 20 23 C15.8381265 19.52067376 13.9216806 15.24340688 11.5625 10.4609375 C9.87966538 7.81047298 8.94174425 6.97675102 6 6 C5.01 6 4.02 6 3 6 C1.3125 4.6875 1.3125 4.6875 0 3 C0 2.01 0 1.02 0 0 Z " fill="#EEF5CA" transform="translate(549,574)"/>
<path d="M0 0 C0 3 0 3 -1.5 4.6875 C-1.995 5.120625 -2.49 5.55375 -3 6 C-0.525 6.495 -0.525 6.495 2 7 C2 7.33 2 7.66 2 8 C1.27296875 8.10957031 0.5459375 8.21914063 -0.203125 8.33203125 C-7.58882317 9.49669904 -14.77552138 11.07859611 -22 13 C-22 12.34 -22 11.68 -22 11 C-24.46326712 9.3553326 -24.46326712 9.3553326 -27 8 C-26.67 7.34 -26.34 6.68 -26 6 C-24.515 6.99 -24.515 6.99 -23 8 C-16.39204057 8.81021159 -10.76630735 8.34445826 -5 5 C-2.12314797 2.45911321 -2.12314797 2.45911321 0 0 Z " fill="#E6F1C7" transform="translate(522,588)"/>
<path d="M0 0 C0.33 0 0.66 0 1 0 C1.33 10.56 1.66 21.12 2 32 C-5 23.25 -5 23.25 -5 21 C-3.35 21 -1.7 21 0 21 C0 14.07 0 7.14 0 0 Z " fill="#EBF2D2" transform="translate(459,763)"/>
<path d="M0 0 C0 4.3089561 -2.55025083 6.40181457 -5.25 9.5 C-5.98669922 10.37205078 -5.98669922 10.37205078 -6.73828125 11.26171875 C-9.2822983 14.22634662 -11.7233063 16.81553753 -15 19 C-15.99 18.34 -16.98 17.68 -18 17 C-16.04709472 15.16056628 -14.08818082 13.32840869 -12.125 11.5 C-11.29162109 10.71302734 -11.29162109 10.71302734 -10.44140625 9.91015625 C-6.2265625 6 -6.2265625 6 -4 6 C-3.566875 5.071875 -3.566875 5.071875 -3.125 4.125 C-2 2 -2 2 0 0 Z " fill="#519256" transform="translate(661,639)"/>
<path d="M0 0 C1.32 0 2.64 0 4 0 C6.62077594 2.97324472 7.01737798 4.57306534 6.85546875 8.55078125 C6.52482422 10.41283203 6.52482422 10.41283203 6.1875 12.3125 C5.97480469 13.56675781 5.76210938 14.82101562 5.54296875 16.11328125 C5.36378906 17.06589844 5.18460937 18.01851562 5 19 C4.67 19 4.34 19 4 19 C3.97421875 18.443125 3.9484375 17.88625 3.921875 17.3125 C3.52827837 12.01683618 2.42988749 8.2165321 -0.2578125 3.62890625 C-0.50273437 3.09136719 -0.74765625 2.55382813 -1 2 C-0.67 1.34 -0.34 0.68 0 0 Z " fill="#165B3B" transform="translate(396,1117)"/>
<path d="M0 0 C1.13712711 3.41138132 0.84092941 4.29815391 -0.1796875 7.640625 C-0.58380859 8.99994141 -0.58380859 8.99994141 -0.99609375 10.38671875 C-1.43115234 11.80404297 -1.43115234 11.80404297 -1.875 13.25 C-3.67115829 19.16337958 -5.33675811 24.84375475 -6 31 C-6.33 31 -6.66 31 -7 31 C-7 23.74 -7 16.48 -7 9 C-6.67 9 -6.34 9 -6 9 C-5.67 10.65 -5.34 12.3 -5 14 C-3.35 9.38 -1.7 4.76 0 0 Z " fill="#73B168" transform="translate(487,803)"/>
<path d="M0 0 C1 3 1 3 -0.15234375 6.00390625 C-4.04211626 13.75791665 -8.20140482 20.4634018 -14 27 C-14 23.64681808 -13.44592089 22.74913341 -11.69921875 19.98046875 C-11.21646484 19.20509766 -10.73371094 18.42972656 -10.23632812 17.63085938 C-9.72521484 16.82455078 -9.21410156 16.01824219 -8.6875 15.1875 C-5.56168005 10.21442129 -2.50850255 5.31665557 0 0 Z " fill="#4D8E52" transform="translate(622,434)"/>
<path d="M0 0 C4.4571874 0.26218749 6.51522698 0.57711289 9.9375 3.5625 C10.618125 4.366875 11.29875 5.17125 12 6 C10.02 6.99 10.02 6.99 8 8 C8.66 9.98 9.32 11.96 10 14 C8.85073734 13.04578192 7.70569459 12.08647955 6.5625 11.125 C5.60537109 10.32449219 5.60537109 10.32449219 4.62890625 9.5078125 C3 8 3 8 2 6 C2.99 6 3.98 6 5 6 C4.67 4.35 4.34 2.7 4 1 C2.68 0.67 1.36 0.34 0 0 Z " fill="#0D371F" transform="translate(388,1111)"/>
<path d="M0 0 C-0.99 0.33 -1.98 0.66 -3 1 C-3 1.66 -3 2.32 -3 3 C-3.66 3 -4.32 3 -5 3 C-5 3.66 -5 4.32 -5 5 C-0.71 5 3.58 5 8 5 C8 5.33 8 5.66 8 6 C5.73161744 6.38955051 3.46015313 6.76119129 1.1875 7.125 C-0.07707031 7.33382813 -1.34164063 7.54265625 -2.64453125 7.7578125 C-6 8 -6 8 -9 6 C-9.66 5.34 -10.32 4.68 -11 4 C-7.20307814 1.17438373 -4.81430721 -0.56638908 0 0 Z " fill="#0C371F" transform="translate(504,1111)"/>
<path d="M0 0 C0.99 0.78375 1.98 1.5675 3 2.375 C6.87745088 5.17405963 10.33323603 6.09939643 15 7 C15 7.33 15 7.66 15 8 C10.71 7.67 6.42 7.34 2 7 C2 7.66 2 8.32 2 9 C2.66 9.66 3.32 10.32 4 11 C2.125 10.6875 2.125 10.6875 0 10 C-0.66 9.01 -1.32 8.02 -2 7 C-1.125 3.3125 -1.125 3.3125 0 0 Z " fill="#0C381F" transform="translate(324,1140)"/>
<path d="M0 0 C0.98871094 0.09796875 1.97742188 0.1959375 2.99609375 0.296875 C3.98738281 0.38453125 4.97867187 0.4721875 6 0.5625 C6.80308594 0.72234375 7.60617187 0.8821875 8.43359375 1.046875 C8.76359375 1.706875 9.09359375 2.366875 9.43359375 3.046875 C5.80359375 3.046875 2.17359375 3.046875 -1.56640625 3.046875 C-1.89640625 6.016875 -2.22640625 8.986875 -2.56640625 12.046875 C-4.5643605 8.05096649 -4.94219785 6.36847834 -4.56640625 2.046875 C-2.56640625 0.046875 -2.56640625 0.046875 0 0 Z " fill="#52985B" transform="translate(500.56640625,573.953125)"/>
<path d="M0 0 C2.6875 0.375 2.6875 0.375 5.0625 2.875 C5.59875 3.7 6.135 4.525 6.6875 5.375 C6.3575 6.035 6.0275 6.695 5.6875 7.375 C5.254375 6.694375 4.82125 6.01375 4.375 5.3125 C1.06701448 2.92767323 0.06413445 3.31229245 -3.875 3.8125 C-5.30005859 4.05806641 -5.30005859 4.05806641 -6.75390625 4.30859375 C-9.3125 4.375 -9.3125 4.375 -11.15234375 2.91015625 C-11.72662109 2.15025391 -11.72662109 2.15025391 -12.3125 1.375 C-8.21358225 0.86491246 -4.10411278 0.46461654 0 0 Z " fill="#499356" transform="translate(598.3125,594.625)"/>
<path d="M0 0 C0.89203125 0.11085938 1.7840625 0.22171875 2.703125 0.3359375 C3.37859375 0.43132812 4.0540625 0.52671875 4.75 0.625 C4.75 1.285 4.75 1.945 4.75 2.625 C5.41 3.285 6.07 3.945 6.75 4.625 C4.83404032 4.70633791 2.91708068 4.76434367 1 4.8125 C-0.60101563 4.86470703 -0.60101563 4.86470703 -2.234375 4.91796875 C-5.55027855 4.59582786 -6.84016673 3.85351086 -9.25 1.625 C-5.9353333 -0.40407167 -3.8184021 -0.50242133 0 0 Z " fill="#0E3F26" transform="translate(505.25,1148.375)"/>
<path d="M0 0 C2 0.3125 2 0.3125 4 1 C5 3 5 3 5 4 C5.66 2.68 6.32 1.36 7 0 C8 3 8 3 7.0625 5.1875 C6.711875 5.785625 6.36125 6.38375 6 7 C5.29488281 6.69320313 4.58976563 6.38640625 3.86328125 6.0703125 C0.95734427 4.98405502 -1.75754152 4.3902942 -4.8125 3.875 C-5.78832031 3.70742187 -6.76414062 3.53984375 -7.76953125 3.3671875 C-8.50558594 3.24601562 -9.24164062 3.12484375 -10 3 C-10 2.67 -10 2.34 -10 2 C-9.04287109 1.90912109 -9.04287109 1.90912109 -8.06640625 1.81640625 C-6.82697266 1.69072266 -6.82697266 1.69072266 -5.5625 1.5625 C-4.73878906 1.48128906 -3.91507813 1.40007812 -3.06640625 1.31640625 C-1.01337975 1.21069185 -1.01337975 1.21069185 0 0 Z " fill="#0F381F" transform="translate(686,1114)"/>
<path d="M0 0 C0.33 0 0.66 0 1 0 C1.62131726 4.27155615 2.10848147 8.49618488 2.25 12.8125 C2.28867187 13.90498047 2.28867187 13.90498047 2.328125 15.01953125 C1.91180652 17.53231063 0.92077968 18.39766537 -1 20 C-1.66 19.67 -2.32 19.34 -3 19 C-2.484375 18.608125 -1.96875 18.21625 -1.4375 17.8125 C0.29423311 16.04901603 0.29423311 16.04901603 -0.1875 13.4375 C-0.84627033 10.85558728 -0.84627033 10.85558728 -3 9 C-5.26274788 9.35355436 -6.95088852 9.97544426 -9 11 C-8.34 9.68 -7.68 8.36 -7 7 C-5.33388095 6.957279 -3.66617115 6.95936168 -2 7 C-1.67 7.33 -1.34 7.66 -1 8 C-0.67 5.36 -0.34 2.72 0 0 Z " fill="#F0F7CF" transform="translate(504,529)"/>
<path d="M0 0 C0.495 0.144375 0.99 0.28875 1.5 0.4375 C4.97752922 1.21994407 8.45955123 1.58694764 12 2 C12 2.33 12 2.66 12 3 C11.2575 3.12375 10.515 3.2475 9.75 3.375 C7.05299403 3.85561805 7.05299403 3.85561805 5.0625 5.0625 C2.31378018 6.3119181 -0.01865753 6.13551557 -3 6 C-3 5.34 -3 4.68 -3 4 C-2.34 4 -1.68 4 -1 4 C-0.67 2.68 -0.34 1.36 0 0 Z " fill="#185B3C" transform="translate(502,1110)"/>
<path d="M0 0 C-0.99 0.33 -1.98 0.66 -3 1 C-3.474375 1.474375 -3.94875 1.94875 -4.4375 2.4375 C-6 4 -6 4 -7.86328125 4.71484375 C-10.94606419 6.56902216 -12.02390532 9.00475192 -13.75 12.125 C-14.36359375 13.22070312 -14.9771875 14.31640625 -15.609375 15.4453125 C-16.06828125 16.28835938 -16.5271875 17.13140625 -17 18 C-17.33 17.34 -17.66 16.68 -18 16 C-15.36185241 9.24457605 -11.76985197 4.09683959 -5.9296875 -0.171875 C-3.53966538 -1.19755251 -2.40018481 -0.87473402 0 0 Z " fill="#3D8C4D" transform="translate(508,600)"/>
<path d="M0 0 C3.10158921 2.79143029 4.91835482 4.94383057 6 9 C6.15194292 12.00846986 6.11800529 14.99086522 6 18 C5.67 18 5.34 18 5 18 C5 16.35 5 14.7 5 13 C3.68 13 2.36 13 1 13 C1.20625 11.783125 1.4125 10.56625 1.625 9.3125 C2.09963844 5.65193227 1.76581384 3.32388488 0 0 Z " fill="#0B361E" transform="translate(400,1117)"/>
<path d="M0 0 C2.01635978 3.02453967 3.03246502 5.63075348 4.1875 9.0625 C4.55230469 10.12597656 4.91710937 11.18945312 5.29296875 12.28515625 C6 15 6 15 5 17 C2.69 12.38 0.38 7.76 -2 3 C-1.34 2.01 -0.68 1.02 0 0 Z " fill="#3A7B48" transform="translate(526,430)"/>
<path d="M0 0 C0.33 0 0.66 0 1 0 C2.14905445 4.82602868 1.62621759 7.3850582 0 12 C-0.74969614 14.61413434 -1.43668749 17.24411661 -2.125 19.875 C-2.30675781 20.56335938 -2.48851562 21.25171875 -2.67578125 21.9609375 C-3.11891226 23.6401708 -3.55970044 25.32002206 -4 27 C-4.33 27 -4.66 27 -5 27 C-4.39828638 20.67250629 -3.37848091 14.62404348 -1.9375 8.4375 C-1.75123047 7.61958984 -1.56496094 6.80167969 -1.37304688 5.95898438 C-0.91979313 3.97164104 -0.46053788 1.98566799 0 0 Z " fill="#6DAB66" transform="translate(559,381)"/>
<path d="M0 0 C-0.33 1.65 -0.66 3.3 -1 5 C-4.9813783 6.3271261 -8.85045227 6.06915913 -13 6 C-13 5.01 -13 4.02 -13 3 C-10.33333333 3 -7.66666667 3 -5 3 C-5 2.34 -5 1.68 -5 1 C-3 0 -3 0 0 0 Z " fill="#175A3B" transform="translate(394,1146)"/>
<path d="M0 0 C2.26562673 2.26562673 2.94462749 3.84160705 3.09765625 7.04296875 C3.06510417 9.02864583 3.03255208 11.01432292 3 13 C3.99 13.33 4.98 13.66 6 14 C1.11922548 16.44038726 -1.52667068 17.46845421 -7 16 C-7 15.67 -7 15.34 -7 15 C-5.865625 14.690625 -4.73125 14.38125 -3.5625 14.0625 C-0.21224901 13.37075469 -0.21224901 13.37075469 1 12 C0.90997602 9.97591245 0.75358962 7.95455713 0.5625 5.9375 C0.40974609 4.28041016 0.40974609 4.28041016 0.25390625 2.58984375 C0.17011719 1.73519531 0.08632813 0.88054688 0 0 Z " fill="#F3F8D1" transform="translate(518,538)"/>
<path d="M0 0 C1.65 0 3.3 0 5 0 C5.99 1.98 6.98 3.96 8 6 C6.625 8 6.625 8 5 10 C4.34 10 3.68 10 3 10 C3 8.68 3 7.36 3 6 C2.01 5.67 1.02 5.34 0 5 C0.99 4.67 1.98 4.34 3 4 C2.2575 3.2884375 2.2575 3.2884375 1.5 2.5625 C0 1 0 1 0 0 Z " fill="#195A3C" transform="translate(515,1113)"/>
<path d="M0 0 C3 1 3 1 4 3 C0.04 3 -3.92 3 -8 3 C-8 3.66 -8 4.32 -8 5 C-6.02 4.67 -4.04 4.34 -2 4 C-4.95183101 6.95183101 -7.95511947 7.08663988 -12 8 C-11.625 5.5625 -11.625 5.5625 -11 3 C-8.59454362 1.79727181 -7.05003047 1.89928528 -4.375 1.9375 C-3.14910156 1.95103516 -3.14910156 1.95103516 -1.8984375 1.96484375 C-0.95871094 1.98224609 -0.95871094 1.98224609 0 2 C0 1.34 0 0.68 0 0 Z " fill="#1C5E3F" transform="translate(387,1110)"/>
<path d="M0 0 C0.99 0 1.98 0 3 0 C3.061875 0.61875 3.12375 1.2375 3.1875 1.875 C3.828919 4.27761141 3.828919 4.27761141 6.5625 5.25 C7.366875 5.4975 8.17125 5.745 9 6 C8.01 6.99 7.02 7.98 6 9 C5.401875 8.360625 4.80375 7.72125 4.1875 7.0625 C0.86558434 3.93040809 -1.80863772 3.88063166 -6.1875 3.9375 C-7.08855469 3.94652344 -7.98960937 3.95554687 -8.91796875 3.96484375 C-9.94857422 3.98224609 -9.94857422 3.98224609 -11 4 C-9 2 -9 2 -6.8359375 1.8046875 C-5.61777344 1.83949219 -5.61777344 1.83949219 -4.375 1.875 C-3.14910156 1.90207031 -3.14910156 1.90207031 -1.8984375 1.9296875 C-0.95871094 1.96449219 -0.95871094 1.96449219 0 2 C0 1.34 0 0.68 0 0 Z " fill="#0D341B" transform="translate(341,1114)"/>
<path d="M0 0 C1.32 0 2.64 0 4 0 C4.70133599 1.57725347 5.385583 3.16211333 6.0625 4.75 C6.44535156 5.63171875 6.82820312 6.5134375 7.22265625 7.421875 C8.04600008 10.15256309 7.9773992 11.36901347 7 14 C6.49384702 12.73160474 5.99530901 11.46016898 5.5 10.1875 C5.2215625 9.47980469 4.943125 8.77210938 4.65625 8.04296875 C4 6 4 6 4 3 C0.535 4.485 0.535 4.485 -3 6 C-2.42655063 3.13275314 -2.1385485 2.1385485 0 0 Z " fill="#408E51" transform="translate(509,525)"/>
<path d="M0 0 C0.66 0.33 1.32 0.66 2 1 C1.52949219 1.45890625 1.05898438 1.9178125 0.57421875 2.390625 C-3.25204982 6.12169368 -3.25204982 6.12169368 -6.625 10.25 C-8.84005088 13.06915566 -11.84243008 14.42121504 -15 16 C-13.69113024 13.07299167 -12.33773912 11.12815685 -9.9609375 8.984375 C-9.38085938 8.45585937 -8.80078125 7.92734375 -8.203125 7.3828125 C-7.59984375 6.84398437 -6.9965625 6.30515625 -6.375 5.75 C-5.76398438 5.19570313 -5.15296875 4.64140625 -4.5234375 4.0703125 C-3.02043435 2.7082159 -1.5108532 1.35338399 0 0 Z " fill="#183824" transform="translate(405,451)"/>
<path d="M0 0 C3 3 3 3 3.29296875 5.26171875 C3.25816406 6.06222656 3.22335937 6.86273437 3.1875 7.6875 C3.16042969 8.49574219 3.13335938 9.30398438 3.10546875 10.13671875 C3.07066406 10.75160156 3.03585937 11.36648438 3 12 C2.01 12 1.02 12 0 12 C-0.33 12.66 -0.66 13.32 -1 14 C-4.0625 14.625 -4.0625 14.625 -7 15 C-5.68 12.69 -4.36 10.38 -3 8 C-2.67 8.66 -2.34 9.32 -2 10 C-0.68 10.33 0.64 10.66 2 11 C1.34 7.37 0.68 3.74 0 0 Z " fill="#08321A" transform="translate(624,1116)"/>
<path d="M0 0 C0.99 0.33 1.98 0.66 3 1 C1.02 1.99 1.02 1.99 -1 3 C-0.34 3.66 0.32 4.32 1 5 C0.01 5.495 0.01 5.495 -1 6 C-1.33 6.99 -1.66 7.98 -2 9 C-3.98 9 -5.96 9 -8 9 C-6.99023354 5.36484074 -6.05356282 4.04330611 -3.0625 1.625 C-2.051875 1.08875 -1.04125 0.5525 0 0 Z " fill="#134028" transform="translate(327,1112)"/>
<path d="M0 0 C1.33140364 3.80401039 0.80123022 7.05786873 0.25 11 C0.01023437 12.8253125 0.01023437 12.8253125 -0.234375 14.6875 C-0.98525128 17.93618922 -1.78523649 19.56619394 -4 22 C-3.61422945 14.25798419 -2.57611228 7.32328775 0 0 Z " fill="#63A466" transform="translate(366,578)"/>
<path d="M0 0 C3.33557632 2.9905167 5.15083921 5.93184627 7 10 C4.03 10 1.06 10 -2 10 C-2.33 8.68 -2.66 7.36 -3 6 C-0.03 6.495 -0.03 6.495 3 7 C2.34 6.34 1.68 5.68 1 5 C0.67 5 0.34 5 0 5 C0 3.35 0 1.7 0 0 Z " fill="#0D331C" transform="translate(622,1143)"/>
<path d="M0 0 C2.56326494 1.28163247 2.82416059 2.42785129 4 5 C4.37125 5.7425 4.7425 6.485 5.125 7.25 C5.41375 7.8275 5.7025 8.405 6 9 C3.6875 9.25 3.6875 9.25 1 9 C-0.875 7.25 -0.875 7.25 -2 5 C-1.75203633 2.83031791 -1.55766393 1.55766393 0 0 Z " fill="#155B39" transform="translate(620,1142)"/>
<path d="M0 0 C0 4.0521288 -1.50488362 5.09105379 -4.1875 8.0625 C-4.96480469 8.94035156 -5.74210938 9.81820312 -6.54296875 10.72265625 C-8.99164656 12.99225746 -10.84446143 14.00793903 -14 15 C-9.59156563 9.70987876 -4.92440206 4.81191572 0 0 Z " fill="#0C462D" transform="translate(651,594)"/>
<path d="M0 0 C3.48231906 1.74115953 3.96238459 5.84666762 5.1875 9.375 C5.47302734 10.15617188 5.75855469 10.93734375 6.05273438 11.7421875 C6.31763672 12.495 6.58253906 13.2478125 6.85546875 14.0234375 C7.09934326 14.71356934 7.34321777 15.40370117 7.59448242 16.11474609 C8 18 8 18 7 21 C6.67 19.35 6.34 17.7 6 16 C5.34 16 4.68 16 4 16 C2.68 10.72 1.36 5.44 0 0 Z " fill="#0C311A" transform="translate(385,975)"/>
<path d="M0 0 C0.66 0.33 1.32 0.66 2 1 C-4.02818509 5.28670939 -8.71304215 5.474377 -16 5 C-14.68 4.34 -13.36 3.68 -12 3 C-12 2.34 -12 1.68 -12 1 C-10.14375 1.309375 -10.14375 1.309375 -8.25 1.625 C-4.79522672 2.07668414 -3.01964058 1.85824036 0 0 Z " fill="#0B321B" transform="translate(348,1148)"/>
<path d="M0 0 C1.98 0.495 1.98 0.495 4 1 C4 3.64 4 6.28 4 9 C3.67 8.34 3.34 7.68 3 7 C2.34 7 1.68 7 1 7 C1 7.66 1 8.32 1 9 C0.34 9 -0.32 9 -1 9 C-0.67 6.03 -0.34 3.06 0 0 Z " fill="#135435" transform="translate(689,1134)"/>
<path d="M0 0 C3.24208567 0.35049575 4.61527704 0.56221181 6.8125 3.0625 C7.204375 3.701875 7.59625 4.34125 8 5 C7.67 5.66 7.34 6.32 7 7 C1.25 5.25 1.25 5.25 -1 3 C-0.34 3 0.32 3 1 3 C0.67 2.01 0.34 1.02 0 0 Z " fill="#175D3C" transform="translate(343,1113)"/>
<path d="M0 0 C0 5.61 0 11.22 0 17 C-3.38370684 13.61629316 -3.05529986 9.7667907 -3.0625 5.1875 C-3.04655989 3.79160221 -3.02736707 2.39572052 -3 1 C-1 0 -1 0 0 0 Z " fill="#1F5F40" transform="translate(327,599)"/>
<path d="M0 0 C0.99 0.99 1.98 1.98 3 3 C-0.11734325 6.33233244 -1.99155931 7.92733572 -6.69921875 8.09765625 C-7.68535156 8.08605469 -8.67148437 8.07445312 -9.6875 8.0625 C-10.68136719 8.05347656 -11.67523438 8.04445313 -12.69921875 8.03515625 C-13.83810547 8.01775391 -13.83810547 8.01775391 -15 8 C-15 7.67 -15 7.34 -15 7 C-14.08476562 6.91363281 -13.16953125 6.82726563 -12.2265625 6.73828125 C-11.03804688 6.59777344 -9.84953125 6.45726562 -8.625 6.3125 C-7.44164062 6.18488281 -6.25828125 6.05726562 -5.0390625 5.92578125 C-1.78498188 5.32142947 -1.78498188 5.32142947 -0.5859375 2.41796875 C-0.39257812 1.62003906 -0.19921875 0.82210938 0 0 Z " fill="#0C321C" transform="translate(395,1145)"/>
<path d="M0 0 C3 1 3 1 3.8125 2.625 C4.08471625 6.07307254 3.1572848 8.77178449 2 12 C1.01 12.495 1.01 12.495 0 13 C-0.66 10.69 -1.32 8.38 -2 6 C-1.01 6 -0.02 6 1 6 C0.67 4.02 0.34 2.04 0 0 Z " fill="#1C573A" transform="translate(321,1135)"/>
<path d="M0 0 C-1.15173355 2.46800047 -2.04783565 4.04783565 -4 6 C-4.64767793 8.57061311 -4.64767793 8.57061311 -5 11 C-5.268125 10.360625 -5.53625 9.72125 -5.8125 9.0625 C-6.88667752 6.66868314 -6.88667752 6.66868314 -10 6 C-8.71283353 4.99421411 -7.42011342 3.99553202 -6.125 3 C-5.40570312 2.443125 -4.68640625 1.88625 -3.9453125 1.3125 C-2 0 -2 0 0 0 Z " fill="#ECF4CC" transform="translate(568,509)"/>
<path d="M0 0 C0.66 0.33 1.32 0.66 2 1 C2 2.98 2 4.96 2 7 C-0.33333333 7 -2.66666667 7 -5 7 C-3.70700306 4.11562221 -2.34058637 2.12780579 0 0 Z " fill="#68A869" transform="translate(403,512)"/>
<path d="M0 0 C0.66 1.32 1.32 2.64 2 4 C2.33 3.34 2.66 2.68 3 2 C3.99 2 4.98 2 6 2 C6.33 2.99 6.66 3.98 7 5 C6.01 5.33 5.02 5.66 4 6 C5.65 7.98 7.3 9.96 9 12 C5.18688695 10.5019913 3.27516449 8.37351976 1 5 C0.25 2.1875 0.25 2.1875 0 0 Z " fill="#08311A" transform="translate(487,1138)"/>
<path d="M0 0 C0.33 0 0.66 0 1 0 C1.10807131 1.93627769 1.1856225 3.87427756 1.25 5.8125 C1.29640625 6.89144531 1.3428125 7.97039062 1.390625 9.08203125 C1.26171875 10.04496094 1.1328125 11.00789063 1 12 C-0.32 12.99 -1.64 13.98 -3 15 C-3 11.7 -3 8.4 -3 5 C-2.01 5.495 -2.01 5.495 -1 6 C-0.67 4.02 -0.34 2.04 0 0 Z " fill="#0C3D22" transform="translate(281,1135)"/>
<path d="M0 0 C-2.63904371 1.41377341 -5.07120629 2.37240135 -8 3 C-6.68 4.32 -5.36 5.64 -4 7 C-7.48539917 6.35455571 -10.02819057 4.89865603 -13 3 C-8.54370064 0.02913376 -5.32064558 -0.12092376 0 0 Z " fill="#EAF3D1" transform="translate(493,463)"/>
<path d="M0 0 C0 3 0 3 -2 5.1875 C-2.66 5.785625 -3.32 6.38375 -4 7 C-4.99 5.68 -5.98 4.36 -7 3 C-6.67 2.34 -6.34 1.68 -6 1 C-4.7934375 1.0309375 -4.7934375 1.0309375 -3.5625 1.0625 C-1.06645115 1.29633621 -1.06645115 1.29633621 0 0 Z " fill="#0F3821" transform="translate(734,1134)"/>
<path d="M0 0 C3.45925163 1.2491742 6.14693203 2.67527795 9 5 C8.01 5 7.02 5 6 5 C6 5.66 6 6.32 6 7 C3.5625 6.3125 3.5625 6.3125 1 5 C0.1875 2.375 0.1875 2.375 0 0 Z " fill="#E3EEC6" transform="translate(549,574)"/>
<path d="M0 0 C0.33 0.99 0.66 1.98 1 3 C-0.1875 4.5 -0.1875 4.5 -2 6 C-4.6875 6.1875 -4.6875 6.1875 -7 6 C-7.33 6.99 -7.66 7.98 -8 9 C-8.33 8.01 -8.66 7.02 -9 6 C-7.68 4.68 -6.36 3.36 -5 2 C-4.34 2.66 -3.68 3.32 -3 4 C-2.01 2.68 -1.02 1.36 0 0 Z " fill="#11452A" transform="translate(625,1129)"/>
<path d="M0 0 C1.32 0.66 2.64 1.32 4 2 C1.69 5.3 -0.62 8.6 -3 12 C-3 8.75013384 -2.23184723 6.97092568 -1 4 C-0.64141484 2.67323492 -0.2981424 1.34164079 0 0 Z " fill="#113922" transform="translate(739,1122)"/>
<path d="M0 0 C2.5 1.6875 2.5 1.6875 5 4 C5.3125 6.75 5.3125 6.75 5 9 C4.34 9 3.68 9 3 9 C2.34 9.66 1.68 10.32 1 11 C1 8.33333333 1 5.66666667 1 3 C0.67 2.01 0.34 1.02 0 0 Z " fill="#0F4227" transform="translate(520,1114)"/>
<path d="M0 0 C0.99 0.33 1.98 0.66 3 1 C0.72036239 4.41945641 -0.32597111 4.56623263 -4 6 C-5.77277259 7.52007842 -5.77277259 7.52007842 -7 9 C-7.66 8.67 -8.32 8.34 -9 8 C-6.03 5.36 -3.06 2.72 0 0 Z " fill="#0D351E" transform="translate(417,441)"/>
<path d="M0 0 C2.59482129 2.59482129 2.69990302 4.39883625 3 8 C2.34 8.66 1.68 9.32 1 10 C0.01 7.03 -0.98 4.06 -2 1 C-1.34 0.67 -0.68 0.34 0 0 Z " fill="#4F9053" transform="translate(520,415)"/>
<path d="M0 0 C0.33 0.99 0.66 1.98 1 3 C-1.31 3 -3.62 3 -6 3 C-6.33 3.99 -6.66 4.98 -7 6 C-7 5.34 -7 4.68 -7 4 C-7.66 4 -8.32 4 -9 4 C-9 3.34 -9 2.68 -9 2 C-5.5647952 -0.29013653 -4.014669 -0.17842973 0 0 Z " fill="#2C664A" transform="translate(387,1146)"/>
<path d="M0 0 C0.66 0.33 1.32 0.66 2 1 C1.38080922 2.46080933 0.75443308 3.91857455 0.125 5.375 C-0.22304688 6.18710938 -0.57109375 6.99921875 -0.9296875 7.8359375 C-2 10 -2 10 -4 12 C-4 10.68 -4 9.36 -4 8 C-3.34 8 -2.68 8 -2 8 C-2.226875 7.236875 -2.45375 6.47375 -2.6875 5.6875 C-2.790625 4.800625 -2.89375 3.91375 -3 3 C-1.5625 1.1875 -1.5625 1.1875 0 0 Z " fill="#165C3B" transform="translate(373,1114)"/>
<path d="M0 0 C0.66 0.33 1.32 0.66 2 1 C0.40629329 2.36646148 -1.20032982 3.71787166 -2.8125 5.0625 C-4.15248047 6.19365234 -4.15248047 6.19365234 -5.51953125 7.34765625 C-6.74736328 8.16556641 -6.74736328 8.16556641 -8 9 C-8.99 8.67 -9.98 8.34 -11 8 C-7.37 5.36 -3.74 2.72 0 0 Z " fill="#08462E" transform="translate(607,691)"/>
<path d="M0 0 C0 3.77910478 -0.99703962 4.46106101 -3.5 7.1875 C-4.1496875 7.90292969 -4.799375 8.61835937 -5.46875 9.35546875 C-5.9740625 9.89816406 -6.479375 10.44085937 -7 11 C-7.66 10.34 -8.32 9.68 -9 9 C-7.625 7.5 -7.625 7.5 -6 6 C-5.34 6 -4.68 6 -4 6 C-3.71125 5.38125 -3.4225 4.7625 -3.125 4.125 C-2 2 -2 2 0 0 Z " fill="#5EA15E" transform="translate(661,639)"/>
<path d="M0 0 C0.33 0.99 0.66 1.98 1 3 C-0.32 3.99 -1.64 4.98 -3 6 C-3.33 5.67 -3.66 5.34 -4 5 C-5.34747084 4.76924918 -6.70377565 4.58846937 -8.0625 4.4375 C-9.361875 4.293125 -10.66125 4.14875 -12 4 C-12 3.67 -12 3.34 -12 3 C-10.95199219 2.92652344 -10.95199219 2.92652344 -9.8828125 2.8515625 C-8.97273438 2.77679687 -8.06265625 2.70203125 -7.125 2.625 C-6.22007812 2.55539062 -5.31515625 2.48578125 -4.3828125 2.4140625 C-1.82058097 2.20431868 -1.82058097 2.20431868 0 0 Z " fill="#72AD72" transform="translate(513,571)"/>
<path d="M0 0 C4.75 0.75 4.75 0.75 7 3 C5.35 5.31 3.7 7.62 2 10 C1.67 9.34 1.34 8.68 1 8 C1.9375 5.875 1.9375 5.875 3 4 C2.01 2.68 1.02 1.36 0 0 Z " fill="#3E8E50" transform="translate(584,488)"/>
<path d="M0 0 C0.433125 0.474375 0.86625 0.94875 1.3125 1.4375 C3.02309613 3.23686957 3.02309613 3.23686957 6 4 C6 4.99 6 5.98 6 7 C7.43750191 8.68798827 7.43750191 8.68798827 9 10 C5.32408105 8.9789114 4.0660202 8.08564783 1.6875 5 C0 2 0 2 0 0 Z " fill="#E5F0C3" transform="translate(390,668)"/>
<path d="M0 0 C3 1 3 1 4.1875 3.0625 C4.455625 3.701875 4.72375 4.34125 5 5 C4.236875 4.79375 3.47375 4.5875 2.6875 4.375 C-0.21885944 3.66608797 -0.21885944 3.66608797 -3 6 C-1.125 1.125 -1.125 1.125 0 0 Z " fill="#418F51" transform="translate(537,536)"/>
<path d="M0 0 C0.66 0.33 1.32 0.66 2 1 C1.45276317 4.37462715 0.9451 6.08235 -1 9 C-1.66 9 -2.32 9 -3 9 C-2.01 6.03 -1.02 3.06 0 0 Z " fill="#3E804B" transform="translate(541,438)"/>
<path d="M0 0 C2.33944736 0.28730055 4.6739143 0.61936779 7 1 C7 1.99 7 2.98 7 4 C1.25 3.25 1.25 3.25 -1 1 C-0.67 0.67 -0.34 0.34 0 0 Z " fill="#135837" transform="translate(326,1146)"/>
<path d="M0 0 C2.125 0.9375 2.125 0.9375 4 2 C2.625 3.5 2.625 3.5 1 5 C0.34 5 -0.32 5 -1 5 C-1.33 3.68 -1.66 2.36 -2 1 C-1.34 0.67 -0.68 0.34 0 0 Z " fill="#175C3B" transform="translate(516,1145)"/>
<path d="M0 0 C1.32 0 2.64 0 4 0 C2.8141763 3.37503669 1.72426311 5.64722731 -1 8 C-0.67 5.36 -0.34 2.72 0 0 Z " fill="#448D53" transform="translate(365,587)"/>
<path d="M0 0 C0.66 0 1.32 0 2 0 C2 1.98 2 3.96 2 6 C-0.31 5.67 -2.62 5.34 -5 5 C-5 4.67 -5 4.34 -5 4 C-3.35 4 -1.7 4 0 4 C0 2.68 0 1.36 0 0 Z " fill="#09371C" transform="translate(302,1147)"/>
<path d="M0 0 C0.66 0.99 1.32 1.98 2 3 C0.35 3.33 -1.3 3.66 -3 4 C-3 5.98 -3 7.96 -3 10 C-3.33 10 -3.66 10 -4 10 C-4.25 6.6875 -4.25 6.6875 -4 3 C-2 1.0625 -2 1.0625 0 0 Z " fill="#1A5E3E" transform="translate(672,1115)"/>
<path d="M0 0 C2.29013653 3.4352048 2.17842973 4.985331 2 9 C0.68 7.35 -0.64 5.7 -2 4 C-1.34 2.68 -0.68 1.36 0 0 Z " fill="#DCE7D0" transform="translate(459,786)"/>
<path d="M0 0 C0 0.66 0 1.32 0 2 C-2.97 2 -5.94 2 -9 2 C-4 -1.33333333 -4 -1.33333333 0 0 Z " fill="#E1EFC9" transform="translate(620,490)"/>
<path d="M0 0 C0 0.99 0 1.98 0 3 C-2.875 3.125 -2.875 3.125 -6 3 C-6.66 2.34 -7.32 1.68 -8 1 C-5.10765685 0.17361624 -3.11257569 0 0 0 Z " fill="#CBDFB7" transform="translate(499,461)"/>
<path d="M0 0 C0.66 0.33 1.32 0.66 2 1 C1.75 3.375 1.75 3.375 1 6 C-1.0625 7.3125 -1.0625 7.3125 -3 8 C-2.01 5.36 -1.02 2.72 0 0 Z " fill="#488951" transform="translate(545,429)"/>
</svg>
